<svg id="ICON_MAGVS" data-name="ICON MAGVS" xmlns="http://www.w3.org/2000/svg" xmlns:xlink="http://www.w3.org/1999/xlink" width="234.958" height="73.771" viewBox="0 0 234.958 73.771">
  <defs>
    <clipPath id="clip-path">
      <rect id="Прямоугольник_119" data-name="Прямоугольник 119" width="234.958" height="73.771" fill="none"/>
    </clipPath>
    <clipPath id="clip-path-3">
      <rect id="Прямоугольник_98" data-name="Прямоугольник 98" width="27.822" height="15.617" fill="none"/>
    </clipPath>
    <clipPath id="clip-path-4">
      <rect id="Прямоугольник_99" data-name="Прямоугольник 99" width="81.691" height="16.73" fill="none"/>
    </clipPath>
    <clipPath id="clip-path-5">
      <rect id="Прямоугольник_100" data-name="Прямоугольник 100" width="5.792" height="7.068" fill="none"/>
    </clipPath>
    <clipPath id="clip-path-6">
      <rect id="Прямоугольник_101" data-name="Прямоугольник 101" width="7.297" height="1.645" fill="none"/>
    </clipPath>
    <clipPath id="clip-path-7">
      <rect id="Прямоугольник_102" data-name="Прямоугольник 102" width="115.286" height="3.364" fill="none"/>
    </clipPath>
    <clipPath id="clip-path-8">
      <rect id="Прямоугольник_103" data-name="Прямоугольник 103" width="16.8" height="17.143" fill="none"/>
    </clipPath>
    <clipPath id="clip-path-9">
      <rect id="Прямоугольник_104" data-name="Прямоугольник 104" width="1.346" height="5.763" fill="none"/>
    </clipPath>
    <clipPath id="clip-path-11">
      <rect id="Прямоугольник_106" data-name="Прямоугольник 106" width="5.072" height="3.582" fill="none"/>
    </clipPath>
    <clipPath id="clip-path-12">
      <rect id="Прямоугольник_107" data-name="Прямоугольник 107" width="5.075" height="3.582" fill="none"/>
    </clipPath>
    <clipPath id="clip-path-13">
      <rect id="Прямоугольник_108" data-name="Прямоугольник 108" width="5.072" height="3.581" fill="none"/>
    </clipPath>
    <clipPath id="clip-path-15">
      <rect id="Прямоугольник_110" data-name="Прямоугольник 110" width="16.564" height="16.902" fill="none"/>
    </clipPath>
    <clipPath id="clip-path-16">
      <rect id="Прямоугольник_111" data-name="Прямоугольник 111" width="1.327" height="5.682" fill="none"/>
    </clipPath>
    <clipPath id="clip-path-18">
      <rect id="Прямоугольник_113" data-name="Прямоугольник 113" width="5" height="3.531" fill="none"/>
    </clipPath>
    <clipPath id="clip-path-19">
      <rect id="Прямоугольник_114" data-name="Прямоугольник 114" width="5.004" height="3.531" fill="none"/>
    </clipPath>
    <clipPath id="clip-path-20">
      <rect id="Прямоугольник_115" data-name="Прямоугольник 115" width="5.001" height="3.531" fill="none"/>
    </clipPath>
    <clipPath id="clip-path-21">
      <rect id="Прямоугольник_116" data-name="Прямоугольник 116" width="5.004" height="3.532" fill="none"/>
    </clipPath>
    <clipPath id="clip-path-22">
      <rect id="Прямоугольник_117" data-name="Прямоугольник 117" width="19.507" height="14.748" fill="none"/>
    </clipPath>
  </defs>
  <g id="Сгруппировать_185" data-name="Сгруппировать 185" opacity="0.738">
    <g id="Сгруппировать_184" data-name="Сгруппировать 184" clip-path="url(#clip-path)">
      <g id="Сгруппировать_183" data-name="Сгруппировать 183" transform="translate(0 0)">
        <g id="Сгруппировать_182" data-name="Сгруппировать 182" clip-path="url(#clip-path)">
          <path id="Контур_243" data-name="Контур 243" d="M54.632,98.013c.037.063.076.126.115.189q.5.8,1.1,1.633c.056.077.113.154.171.231q.733.987,1.621,2.009h0l14.4,0,132.215.034v-4.1Z" transform="translate(-16.405 -29.431)" fill="#d4d5d9"/>
          <path id="Контур_244" data-name="Контур 244" d="M.551,104.955H234.406a.551.551,0,0,0,0-1.1H.551a.551.551,0,0,0,0,1.1" transform="translate(0 -31.184)" fill="#384152"/>
          <path id="Контур_245" data-name="Контур 245" d="M206.274,57.366l-113.51-.9L55.871,53.955l1-19.263H206.274Z" transform="translate(-16.777 -10.417)"/>
          <path id="Контур_246" data-name="Контур 246" d="M173.407,4.628l24.177,12.93-3.769,2.688L169.763,5.5Z" transform="translate(-50.976 -1.39)" fill="#43a1f6"/>
          <g id="Сгруппировать_124" data-name="Сгруппировать 124" transform="translate(118.787 3.238)" opacity="0.8" style="mix-blend-mode: normal;isolation: isolate">
            <g id="Сгруппировать_123" data-name="Сгруппировать 123">
              <g id="Сгруппировать_122" data-name="Сгруппировать 122" clip-path="url(#clip-path-3)">
                <path id="Контур_247" data-name="Контур 247" d="M173.407,4.628l24.177,12.93-3.769,2.688L169.763,5.5Z" transform="translate(-169.762 -4.628)" fill="#fff"/>
              </g>
            </g>
          </g>
          <path id="Контур_248" data-name="Контур 248" d="M207.946,26.7c-.327-1.227-5.791-5.686-16.061-7.358s-33.105-3.9-33.105-3.9l-3.387,1.115L132.666,4.066l1.665-.8-.573-.2C119.118-1.509,100,.024,89.4,1.39S60.991,12.205,57.714,13.766s-12.128.558-14.423,1.115-1.966,10.48-1.966,10.48L39.358,26.81v7.916c0,2.564,3.933,8.7,3.933,8.7a97.87,97.87,0,0,0,12.893,2.23c.287.036.593.071.914.106a15.659,15.659,0,0,1-.144-2.095,14.909,14.909,0,1,1,29.812,0,15.511,15.511,0,0,1-.482,3.847l.929.036,79.651,1h3.814a15.457,15.457,0,0,1-.791-4.887,14.909,14.909,0,1,1,29.812,0,15.457,15.457,0,0,1-.791,4.887h5.649c1.53,0,3.715-2.229,4.043-3.233s-1.093-1.9-1.093-1.9a35.561,35.561,0,0,1-.327-3.679c0-1.338,1.639-.892,1.857-2.007s-.765-9.811-1.092-11.037" transform="translate(-11.818 0)" fill="#43a1f6"/>
          <path id="Контур_249" data-name="Контур 249" d="M91.356,23.2q3.912,6.368,7.621,12.86c2.464,4.331,4.866,8.7,6.978,13.23l-.185-.121c11.4.147,40.2.518,51.206.663,5.685.052,11.387.17,17.057.163l-.326.318c.2-4.28.389-8.563.5-12.842a27.945,27.945,0,0,0-.311-6.333,6.977,6.977,0,0,0-3.58-4.79l-1.131-.657,1.3.113q12.013,1.042,24.013,2.2c7.947.929,16.159,1.18,23.684,4.141-7.566-2.849-15.767-2.937-23.719-3.774q-12.006-1.068-24.026-1.987l.169-.543c4.417,2.232,4.376,7.377,4.226,11.643-.1,4.4-.287,8.785-.475,13.176-5.813.028-11.6-.064-17.394-.148-16.586-.264-34.841-.554-51.334-.933-4.214-9.071-9.216-17.759-14.276-26.38" transform="translate(-27.432 -6.968)" fill="#1e2e35"/>
          <path id="Контур_250" data-name="Контур 250" d="M87.362,12.188c-1.879,1.725-4.558,3.853-6.931,6.122a.9.9,0,0,0,.605,1.555l7.988.032Z" transform="translate(-24.068 -3.66)" fill="#1e2e35"/>
          <path id="Контур_251" data-name="Контур 251" d="M90.165,17.149s-3-3.128-2.763-4.717c.4-2.7,4.812-5.9,17.678-8.155s28.763-.919,34.5,0,16.273,5.963,25.977,12.871c.476.339,3.524,2.618,3.524,2.618Z" transform="translate(-26.241 -0.912)" fill="#43a1f6"/>
          <g id="Сгруппировать_127" data-name="Сгруппировать 127" transform="translate(61.148 2.125)" opacity="0.8" style="mix-blend-mode: normal;isolation: isolate">
            <g id="Сгруппировать_126" data-name="Сгруппировать 126">
              <g id="Сгруппировать_125" data-name="Сгруппировать 125" clip-path="url(#clip-path-4)">
                <path id="Контур_252" data-name="Контур 252" d="M90.165,17.149s-3-3.128-2.763-4.717c.4-2.7,4.812-5.9,17.678-8.155s28.763-.919,34.5,0,16.273,5.963,25.977,12.871c.476.339,3.524,2.618,3.524,2.618Z" transform="translate(-87.388 -3.037)" fill="#fff"/>
              </g>
            </g>
          </g>
          <path id="Контур_253" data-name="Контур 253" d="M191.611,18.845l-2.391,5.478,10.437.191s-6.625-5.339-8.046-5.669" transform="translate(-56.818 -5.659)" fill="#1e2e35"/>
          <path id="Контур_254" data-name="Контур 254" d="M139.536,3.038l.9,15.26,7.9.3-4.739-15.4Z" transform="translate(-41.899 -0.912)" fill="#1e2e35"/>
          <path id="Контур_255" data-name="Контур 255" d="M142.654,3.134c2.574,13.68,4.488,27.533,4.635,41.471-.591-6.148-1.287-14.729-2.084-20.756-.8-6.688-1.811-13.994-2.551-20.715" transform="translate(-42.835 -0.941)" fill="#1e2e35"/>
          <path id="Контур_256" data-name="Контур 256" d="M190.8,19.253a6.208,6.208,0,0,0-2.856-.69,4.427,4.427,0,0,0-3.231,1.533c-.714,1.036-.563,3.3,0,3.6s6.463.46,7.139-.728a2.86,2.86,0,0,0-1.052-3.719" transform="translate(-55.321 -5.568)" fill="#43a1f6"/>
          <path id="Контур_257" data-name="Контур 257" d="M108.6,5.451,109,18.193l1.856.062L110.2,5.134Z" transform="translate(-32.609 -1.542)" fill="#1e2e35"/>
          <g id="Сгруппировать_130" data-name="Сгруппировать 130" transform="translate(29.713 18.295)" opacity="0.3" style="mix-blend-mode: normal;isolation: isolate">
            <g id="Сгруппировать_129" data-name="Сгруппировать 129">
              <g id="Сгруппировать_128" data-name="Сгруппировать 128" clip-path="url(#clip-path-5)">
                <path id="Контур_258" data-name="Контур 258" d="M42.831,26.2c.068-.291,5.517.588,5.425,2.357s-.588,2.388-2.712,3.568-3.063,1.086-3.063,1.086a53,53,0,0,1,.351-7.011" transform="translate(-42.464 -26.146)"/>
              </g>
            </g>
          </g>
          <path id="Контур_259" data-name="Контур 259" d="M66.6,41.763c-5.3-.207-10.707-.432-15.852-1.81l-.358-.164a16.162,16.162,0,0,1-3.772-4.582c.6.707,1.184,1.415,1.816,2.082a10.949,10.949,0,0,0,2.247,2.019,29.866,29.866,0,0,0,4.972.912c3.156.432,7.843,1.019,10.947,1.544" transform="translate(-13.997 -10.572)" fill="#1e2e35"/>
          <path id="Контур_260" data-name="Контур 260" d="M260.826,44.662c.235.077.668-.1.923-.13,2.141-.467,4.318-.828,6.068-2.257-1.155,2.133-3.8,2.678-6.04,2.6-.311-.045-.7,0-.951-.212" transform="translate(-78.32 -12.694)" fill="#1e2e35"/>
          <path id="Контур_261" data-name="Контур 261" d="M265.1,38.889c-.085-.115-.4-1.017,1.245-1.626s2.54-1.271,3.984-1.271a10.223,10.223,0,0,1,4.433,1.067c.846.559,1.045,4.355.5,5.074S265.7,39.7,265.1,38.889" transform="translate(-79.58 -10.808)" fill="#fff"/>
          <g id="Сгруппировать_133" data-name="Сгруппировать 133" transform="translate(105.321 20.449)" opacity="0.3" style="mix-blend-mode: normal;isolation: isolate">
            <g id="Сгруппировать_132" data-name="Сгруппировать 132">
              <g id="Сгруппировать_131" data-name="Сгруппировать 131" clip-path="url(#clip-path-6)">
                <path id="Контур_262" data-name="Контур 262" d="M156.992,30.869h-5.653a.822.822,0,1,1,0-1.644h5.653a.822.822,0,0,1,0,1.644" transform="translate(-150.517 -29.225)"/>
              </g>
            </g>
          </g>
          <g id="Сгруппировать_136" data-name="Сгруппировать 136" transform="translate(44.548 21.271)" opacity="0.2" style="mix-blend-mode: normal;isolation: isolate">
            <g id="Сгруппировать_135" data-name="Сгруппировать 135">
              <g id="Сгруппировать_134" data-name="Сгруппировать 134" clip-path="url(#clip-path-7)">
                <path id="Контур_263" data-name="Контур 263" d="M178.951,33.163c-38.06,0-77.226-2.764-115.287-2.764,0,0,19.795,3.194,25.651,3.344s89.635-.58,89.635-.58" transform="translate(-63.664 -30.399)" fill="#fff"/>
              </g>
            </g>
          </g>
          <path id="Контур_264" data-name="Контур 264" d="M251.345,66.143a13.509,13.509,0,0,1-19.377,0,14.183,14.183,0,0,1,0-19.772,13.509,13.509,0,0,1,19.377,0,14.184,14.184,0,0,1,0,19.772" transform="translate(-68.449 -12.694)" fill="#1e2e35"/>
          <g id="Сгруппировать_139" data-name="Сгруппировать 139" transform="translate(164.807 34.991)" opacity="0.4" style="mix-blend-mode: normal;isolation: isolate">
            <g id="Сгруппировать_138" data-name="Сгруппировать 138">
              <g id="Сгруппировать_137" data-name="Сгруппировать 137" clip-path="url(#clip-path-8)">
                <path id="Контур_265" data-name="Контур 265" d="M249.871,64.64a8.281,8.281,0,0,1-11.879,0,8.7,8.7,0,0,1,0-12.122,8.281,8.281,0,0,1,11.879,0,8.7,8.7,0,0,1,0,12.122" transform="translate(-235.531 -50.007)" fill="#fff"/>
              </g>
            </g>
          </g>
          <g id="Сгруппировать_142" data-name="Сгруппировать 142" transform="translate(172.533 35.851)" opacity="0.3">
            <g id="Сгруппировать_141" data-name="Сгруппировать 141">
              <g id="Сгруппировать_140" data-name="Сгруппировать 140" clip-path="url(#clip-path-9)">
                <path id="Контур_266" data-name="Контур 266" d="M247.918,51.921v4.394a.678.678,0,0,1-.671.684h0a.678.678,0,0,1-.67-.684V51.921a.678.678,0,0,1,.67-.684h0a.678.678,0,0,1,.671.684" transform="translate(-246.572 -51.237)" fill="#fff"/>
              </g>
            </g>
          </g>
          <g id="Сгруппировать_145" data-name="Сгруппировать 145" transform="translate(172.533 45.509)" opacity="0.3">
            <g id="Сгруппировать_144" data-name="Сгруппировать 144">
              <g id="Сгруппировать_143" data-name="Сгруппировать 143" clip-path="url(#clip-path-9)">
                <path id="Контур_267" data-name="Контур 267" d="M247.918,65.723v4.394a.678.678,0,0,1-.671.684h0a.678.678,0,0,1-.67-.684V65.723a.678.678,0,0,1,.67-.684h0a.678.678,0,0,1,.671.684" transform="translate(-246.572 -65.039)" fill="#fff"/>
              </g>
            </g>
          </g>
          <g id="Сгруппировать_148" data-name="Сгруппировать 148" transform="translate(174.77 39.35)" opacity="0.3">
            <g id="Сгруппировать_147" data-name="Сгруппировать 147">
              <g id="Сгруппировать_146" data-name="Сгруппировать 146" clip-path="url(#clip-path-11)">
                <path id="Контур_268" data-name="Контур 268" d="M250.768,59.729a.659.659,0,0,1-.908-.257.692.692,0,0,1,.242-.936l3.731-2.208h0a.664.664,0,0,1,.916.253h0a.692.692,0,0,1-.248.935l-3.726,2.208-.009.006" transform="translate(-249.769 -56.236)" fill="#fff"/>
              </g>
            </g>
          </g>
          <g id="Сгруппировать_151" data-name="Сгруппировать 151" transform="translate(166.57 44.162)" opacity="0.3">
            <g id="Сгруппировать_150" data-name="Сгруппировать 150">
              <g id="Сгруппировать_149" data-name="Сгруппировать 149" clip-path="url(#clip-path-12)">
                <path id="Контур_269" data-name="Контур 269" d="M238.14,66.351h0a.692.692,0,0,1,.247-.935l3.727-2.208a.667.667,0,0,1,.922.247.7.7,0,0,1-.247.94L239.062,66.6a.668.668,0,0,1-.922-.252" transform="translate(-238.05 -63.113)" fill="#fff"/>
              </g>
            </g>
          </g>
          <g id="Сгруппировать_154" data-name="Сгруппировать 154" transform="translate(174.769 44.18)" opacity="0.3">
            <g id="Сгруппировать_153" data-name="Сгруппировать 153">
              <g id="Сгруппировать_152" data-name="Сгруппировать 152" clip-path="url(#clip-path-13)">
                <path id="Контур_270" data-name="Контур 270" d="M254.749,66.378a.664.664,0,0,1-.917.25L250.1,64.42a.7.7,0,0,1-.242-.941.663.663,0,0,1,.917-.247L254.5,65.44h0a.69.69,0,0,1,.245.935v0" transform="translate(-249.768 -63.139)" fill="#fff"/>
              </g>
            </g>
          </g>
          <g id="Сгруппировать_157" data-name="Сгруппировать 157" transform="translate(166.57 39.349)" opacity="0.3">
            <g id="Сгруппировать_156" data-name="Сгруппировать 156">
              <g id="Сгруппировать_155" data-name="Сгруппировать 155" clip-path="url(#clip-path-12)">
                <path id="Контур_271" data-name="Контур 271" d="M243.031,59.479a.664.664,0,0,1-.918.245l-3.726-2.208h0a.692.692,0,0,1-.245-.936.667.667,0,0,1,.922-.251l3.726,2.208h0a.692.692,0,0,1,.245.935l0,.007" transform="translate(-238.05 -56.235)" fill="#fff"/>
              </g>
            </g>
          </g>
          <path id="Контур_272" data-name="Контур 272" d="M247.051,60.608h0a1.153,1.153,0,1,1-1.129,1.152,1.141,1.141,0,0,1,1.129-1.152" transform="translate(-73.844 -18.199)" fill="#1e2e35"/>
          <path id="Контур_273" data-name="Контур 273" d="M89.772,65.808a13.319,13.319,0,0,1-19.1,0,13.985,13.985,0,0,1,0-19.494,13.319,13.319,0,0,1,19.1,0,13.985,13.985,0,0,1,0,19.494" transform="translate(-20.032 -12.695)" fill="#1e2e35"/>
          <g id="Сгруппировать_160" data-name="Сгруппировать 160" transform="translate(51.906 34.915)" opacity="0.4" style="mix-blend-mode: normal;isolation: isolate">
            <g id="Сгруппировать_159" data-name="Сгруппировать 159">
              <g id="Сгруппировать_158" data-name="Сгруппировать 158" clip-path="url(#clip-path-15)">
                <path id="Контур_274" data-name="Контур 274" d="M88.319,64.325a8.165,8.165,0,0,1-11.713,0,8.574,8.574,0,0,1,0-11.951,8.165,8.165,0,0,1,11.713,0,8.574,8.574,0,0,1,0,11.951" transform="translate(-74.18 -49.898)" fill="#fff"/>
              </g>
            </g>
          </g>
          <g id="Сгруппировать_163" data-name="Сгруппировать 163" transform="translate(59.523 35.763)" opacity="0.3">
            <g id="Сгруппировать_162" data-name="Сгруппировать 162">
              <g id="Сгруппировать_161" data-name="Сгруппировать 161" clip-path="url(#clip-path-16)">
                <path id="Контур_275" data-name="Контур 275" d="M86.393,51.786v4.332a.668.668,0,0,1-.661.675h0a.668.668,0,0,1-.661-.675V51.786a.668.668,0,0,1,.661-.675h0a.668.668,0,0,1,.661.675" transform="translate(-85.066 -51.111)" fill="#fff"/>
              </g>
            </g>
          </g>
          <g id="Сгруппировать_166" data-name="Сгруппировать 166" transform="translate(59.523 45.285)" opacity="0.3">
            <g id="Сгруппировать_165" data-name="Сгруппировать 165">
              <g id="Сгруппировать_164" data-name="Сгруппировать 164" clip-path="url(#clip-path-16)">
                <path id="Контур_276" data-name="Контур 276" d="M86.393,65.394v4.332a.668.668,0,0,1-.661.675h0a.668.668,0,0,1-.661-.675V65.394a.668.668,0,0,1,.661-.675h0a.668.668,0,0,1,.661.675" transform="translate(-85.066 -64.719)" fill="#fff"/>
              </g>
            </g>
          </g>
          <g id="Сгруппировать_169" data-name="Сгруппировать 169" transform="translate(61.728 39.212)" opacity="0.3">
            <g id="Сгруппировать_168" data-name="Сгруппировать 168">
              <g id="Сгруппировать_167" data-name="Сгруппировать 167" clip-path="url(#clip-path-18)">
                <path id="Контур_277" data-name="Контур 277" d="M89.2,59.484a.651.651,0,0,1-.9-.253h0a.683.683,0,0,1,.239-.923l3.678-2.177h0a.654.654,0,0,1,.9.249h0a.682.682,0,0,1-.244.922l-3.674,2.177-.009.006" transform="translate(-88.218 -56.04)" fill="#fff"/>
              </g>
            </g>
          </g>
          <g id="Сгруппировать_172" data-name="Сгруппировать 172" transform="translate(53.644 43.957)" opacity="0.3">
            <g id="Сгруппировать_171" data-name="Сгруппировать 171">
              <g id="Сгруппировать_170" data-name="Сгруппировать 170" clip-path="url(#clip-path-19)">
                <path id="Контур_278" data-name="Контур 278" d="M76.753,66.012h0A.682.682,0,0,1,77,65.089l3.674-2.177a.658.658,0,0,1,.909.244.686.686,0,0,1-.244.927l-3.674,2.178a.659.659,0,0,1-.909-.248" transform="translate(-76.664 -62.82)" fill="#fff"/>
              </g>
            </g>
          </g>
          <g id="Сгруппировать_175" data-name="Сгруппировать 175" transform="translate(61.728 43.974)" opacity="0.3">
            <g id="Сгруппировать_174" data-name="Сгруппировать 174">
              <g id="Сгруппировать_173" data-name="Сгруппировать 173" clip-path="url(#clip-path-20)">
                <path id="Контур_279" data-name="Контур 279" d="M93.129,66.039a.654.654,0,0,1-.9.246l-3.678-2.177a.686.686,0,0,1-.239-.927h0a.655.655,0,0,1,.9-.244l3.674,2.177h0a.682.682,0,0,1,.241.922h0" transform="translate(-88.217 -62.845)" fill="#fff"/>
              </g>
            </g>
          </g>
          <g id="Сгруппировать_178" data-name="Сгруппировать 178" transform="translate(53.644 39.212)" opacity="0.3">
            <g id="Сгруппировать_177" data-name="Сгруппировать 177">
              <g id="Сгруппировать_176" data-name="Сгруппировать 176" clip-path="url(#clip-path-21)">
                <path id="Контур_280" data-name="Контур 280" d="M81.575,59.238a.654.654,0,0,1-.9.241L77,57.3h0a.682.682,0,0,1-.241-.922.658.658,0,0,1,.909-.248l3.674,2.177h0a.683.683,0,0,1,.242.922l0,.007" transform="translate(-76.664 -56.039)" fill="#fff"/>
              </g>
            </g>
          </g>
          <path id="Контур_281" data-name="Контур 281" d="M85.539,60.351h0a1.137,1.137,0,1,1-1.114,1.136,1.125,1.125,0,0,1,1.114-1.136" transform="translate(-25.351 -18.122)" fill="#1e2e35"/>
          <path id="Контур_282" data-name="Контур 282" d="M267.7,67.185l.791-4.887,7.808-.241a1.9,1.9,0,0,1,1,2.644,3.921,3.921,0,0,1-3.366,2.484,33.281,33.281,0,0,1-6.228,0" transform="translate(-80.383 -18.634)" fill="#1e2e35"/>
          <path id="Контур_283" data-name="Контур 283" d="M106.74,66.249l.482-3.847,83.146.838.766,4.049c-18.753.295-51.061-.338-84.395-1.04" transform="translate(-32.051 -18.738)" fill="#1e2e35"/>
          <g id="Сгруппировать_181" data-name="Сгруппировать 181" transform="translate(78.131 2.125)" opacity="0.8" style="mix-blend-mode: normal;isolation: isolate">
            <g id="Сгруппировать_180" data-name="Сгруппировать 180">
              <g id="Сгруппировать_179" data-name="Сгруппировать 179" clip-path="url(#clip-path-22)">
                <path id="Контур_284" data-name="Контур 284" d="M111.659,15.245,126.37,3.1l4.8-.068L116.634,17.785l-4.856-.161Z" transform="translate(-111.659 -3.037)" fill="#fff"/>
              </g>
            </g>
          </g>
          <path id="Контур_285" data-name="Контур 285" d="M205.177,93.246H49.012a5.224,5.224,0,1,1,0-10.448H205.177a5.224,5.224,0,1,1,0,10.448" transform="translate(-13.148 -24.862)" fill="#b8c0c7"/>
          <path id="Контур_286" data-name="Контур 286" d="M205.01,93.468H48.845a5.614,5.614,0,1,1,0-11.228H205.01a5.614,5.614,0,1,1,0,11.228M48.845,83.02a4.834,4.834,0,1,0,0,9.667H205.01a4.834,4.834,0,1,0,0-9.667Z" transform="translate(-12.981 -24.695)" fill="#151f2c"/>
        </g>
      </g>
    </g>
  </g>
</svg>
