<svg id="ICON_OSW" data-name="ICON OSW" xmlns="http://www.w3.org/2000/svg" xmlns:xlink="http://www.w3.org/1999/xlink" width="243.589" height="163.246" viewBox="0 0 243.589 163.246">
  <defs>
    <clipPath id="clip-path">
      <rect id="Прямоугольник_166" data-name="Прямоугольник 166" width="243.589" height="163.246" fill="none"/>
    </clipPath>
    <clipPath id="clip-path-3">
      <rect id="Прямоугольник_143" data-name="Прямоугольник 143" width="1.958" height="1.958" fill="none"/>
    </clipPath>
    <clipPath id="clip-path-4">
      <rect id="Прямоугольник_144" data-name="Прямоугольник 144" width="1.474" height="1.474" fill="none"/>
    </clipPath>
    <clipPath id="clip-path-5">
      <rect id="Прямоугольник_145" data-name="Прямоугольник 145" width="2.569" height="2.569" fill="none"/>
    </clipPath>
    <clipPath id="clip-path-6">
      <rect id="Прямоугольник_146" data-name="Прямоугольник 146" width="117.417" height="4.721" fill="none"/>
    </clipPath>
    <clipPath id="clip-path-7">
      <rect id="Прямоугольник_147" data-name="Прямоугольник 147" width="117.417" height="1.616" fill="none"/>
    </clipPath>
    <clipPath id="clip-path-8">
      <rect id="Прямоугольник_148" data-name="Прямоугольник 148" width="16.522" height="0.806" fill="none"/>
    </clipPath>
    <clipPath id="clip-path-9">
      <rect id="Прямоугольник_149" data-name="Прямоугольник 149" width="98.163" height="62.74" fill="none"/>
    </clipPath>
    <clipPath id="clip-path-10">
      <rect id="Прямоугольник_150" data-name="Прямоугольник 150" width="93.156" height="52.411" fill="none"/>
    </clipPath>
    <clipPath id="clip-path-11">
      <rect id="Прямоугольник_151" data-name="Прямоугольник 151" width="87.081" height="31.904" fill="none"/>
    </clipPath>
    <clipPath id="clip-path-12">
      <rect id="Прямоугольник_164" data-name="Прямоугольник 164" width="2.259" height="2.259" fill="none"/>
    </clipPath>
  </defs>
  <g id="Сгруппировать_219" data-name="Сгруппировать 219" opacity="0.801">
    <g id="Сгруппировать_218" data-name="Сгруппировать 218" clip-path="url(#clip-path)">
      <rect id="Прямоугольник_120" data-name="Прямоугольник 120" width="235.56" height="0.118" transform="translate(0 144.864)" fill="#ececec"/>
      <rect id="Прямоугольник_121" data-name="Прямоугольник 121" width="15.604" height="0.117" transform="translate(196.353 152.448)" fill="#ececec"/>
      <rect id="Прямоугольник_122" data-name="Прямоугольник 122" width="4.095" height="0.117" transform="translate(151.949 153.726)" fill="#ececec"/>
      <rect id="Прямоугольник_123" data-name="Прямоугольник 123" width="9.042" height="0.117" transform="translate(186.84 148.073)" fill="#ececec"/>
      <rect id="Прямоугольник_124" data-name="Прямоугольник 124" width="20.349" height="0.117" transform="translate(24.715 148.865)" fill="#ececec"/>
      <rect id="Прямоугольник_125" data-name="Прямоугольник 125" width="2.984" height="0.117" transform="translate(49.258 148.865)" fill="#ececec"/>
      <rect id="Прямоугольник_126" data-name="Прямоугольник 126" width="44.133" height="0.118" transform="translate(61.939 150.854)" fill="#ececec"/>
      <rect id="Прямоугольник_127" data-name="Прямоугольник 127" width="235.56" height="0.117" transform="translate(8.029 154.267)" fill="#ececec"/>
      <rect id="Прямоугольник_128" data-name="Прямоугольник 128" width="15.604" height="0.118" transform="translate(201.55 158.753)" fill="#ececec"/>
      <rect id="Прямоугольник_129" data-name="Прямоугольник 129" width="23.491" height="0.118" transform="translate(69.968 160.347)" fill="#ececec"/>
      <rect id="Прямоугольник_130" data-name="Прямоугольник 130" width="13.91" height="0.118" transform="translate(187.168 163.128)" fill="#ececec"/>
      <rect id="Прямоугольник_131" data-name="Прямоугольник 131" width="10.174" height="0.118" transform="translate(32.743 162.336)" fill="#ececec"/>
      <rect id="Прямоугольник_132" data-name="Прямоугольник 132" width="18.079" height="0.118" transform="translate(47.113 162.336)" fill="#ececec"/>
      <rect id="Прямоугольник_133" data-name="Прямоугольник 133" width="44.133" height="0.118" transform="translate(119.941 157.474)" fill="#ececec"/>
      <g id="Сгруппировать_217" data-name="Сгруппировать 217">
        <g id="Сгруппировать_216" data-name="Сгруппировать 216" clip-path="url(#clip-path)">
          <path id="Контур_287" data-name="Контур 287" d="M148.911,133.255H57.938a2.692,2.692,0,0,1-2.689-2.689V2.689A2.692,2.692,0,0,1,57.938,0h90.972A2.692,2.692,0,0,1,151.6,2.689V130.566a2.692,2.692,0,0,1-2.689,2.689M57.938.118a2.574,2.574,0,0,0-2.571,2.571V130.566a2.574,2.574,0,0,0,2.571,2.571h90.972a2.574,2.574,0,0,0,2.571-2.571V2.689A2.574,2.574,0,0,0,148.911.118Z" transform="translate(-29.22)" fill="#ececec"/>
          <path id="Контур_288" data-name="Контур 288" d="M365.208,133.255H274.235a2.692,2.692,0,0,1-2.689-2.689V2.689A2.692,2.692,0,0,1,274.235,0h90.973A2.692,2.692,0,0,1,367.9,2.689V130.566a2.692,2.692,0,0,1-2.689,2.689M274.235.118a2.574,2.574,0,0,0-2.571,2.571V130.566a2.574,2.574,0,0,0,2.571,2.571h90.973a2.574,2.574,0,0,0,2.571-2.571V2.689A2.574,2.574,0,0,0,365.208.118Z" transform="translate(-143.615)" fill="#ececec"/>
          <path id="Контур_289" data-name="Контур 289" d="M334.375,104.5h59.518a5.67,5.67,0,0,0,5.653-5.653V36.636a5.67,5.67,0,0,0-5.653-5.653H334.375a5.67,5.67,0,0,0-5.653,5.653V98.851a5.67,5.67,0,0,0,5.653,5.653" transform="translate(-173.854 -16.386)" fill="#fafafa"/>
          <path id="Контур_290" data-name="Контур 290" d="M433.363,57.373a5.6,5.6,0,1,0,5.6-5.6,5.6,5.6,0,0,0-5.6,5.6" transform="translate(-229.197 -27.384)" fill="#f0f0f0"/>
          <path id="Контур_291" data-name="Контур 291" d="M402.273,57.373a5.6,5.6,0,1,0,5.6-5.6,5.595,5.595,0,0,0-5.6,5.6" transform="translate(-212.754 -27.384)" fill="#fff"/>
          <path id="Контур_292" data-name="Контур 292" d="M392.746,124.193a19.967,19.967,0,1,1,19.967-19.967,19.989,19.989,0,0,1-19.967,19.967m0-39.53a19.563,19.563,0,1,0,19.563,19.563,19.585,19.585,0,0,0-19.563-19.563" transform="translate(-197.155 -44.563)" fill="#fff"/>
          <path id="Контур_293" data-name="Контур 293" d="M395.069,212.317a13.8,13.8,0,0,0-13.577,11.319c-.538,2.958-1.064,5.918-1.78,8.838l-4.175,17.045H414.6l-4.175-17.046c-.716-2.92-1.243-5.88-1.779-8.838a13.8,13.8,0,0,0-13.577-11.319" transform="translate(-198.613 -112.29)" fill="#e1e1e1"/>
          <path id="Контур_294" data-name="Контур 294" d="M399.647,212.317a13.8,13.8,0,0,0-13.577,11.319c-.537,2.958-1.064,5.918-1.78,8.838l-4.175,17.045h39.064L415,232.474c-.716-2.92-1.243-5.88-1.78-8.838a13.8,13.8,0,0,0-13.577-11.319" transform="translate(-201.035 -112.29)" fill="#e7e7e7"/>
          <path id="Контур_295" data-name="Контур 295" d="M239.5,67.115h0a6.978,6.978,0,0,1,8.393-5.136l62.674,15.09A6.958,6.958,0,1,1,307.307,90.6l-62.675-15.09a6.979,6.979,0,0,1-5.135-8.393" transform="translate(-126.563 -32.678)" fill="#e1e1e1"/>
          <path id="Контур_296" data-name="Контур 296" d="M242.065,65.541h0a6.978,6.978,0,0,1,8.393-5.136L313.133,75.5a6.958,6.958,0,0,1-3.258,13.529L247.2,73.935a6.979,6.979,0,0,1-5.136-8.393" transform="translate(-127.921 -31.845)" fill="#ececec"/>
          <path id="Контур_297" data-name="Контур 297" d="M260.017,72.743h0a3.59,3.59,0,0,1,4.318-2.642l52.428,12.624a3.579,3.579,0,1,1-1.676,6.959L262.659,77.061a3.59,3.59,0,0,1-2.642-4.318" transform="translate(-137.465 -37.022)" fill="#e1e1e1"/>
          <path id="Контур_298" data-name="Контур 298" d="M223.25,68.025a14.577,14.577,0,0,0-12.864-4.052,5.351,5.351,0,0,0-2.772,9.055l10.633,10.633a5.351,5.351,0,0,0,9.055-2.772,14.577,14.577,0,0,0-4.052-12.864" transform="translate(-108.968 -33.716)" fill="#f5f5f5"/>
          <path id="Контур_299" data-name="Контур 299" d="M165.788,122.119v-4.045a18.032,18.032,0,1,0-18.032-18.032h-4.045a22.076,22.076,0,1,1,22.076,22.077" transform="translate(-76.006 -41.235)" fill="#ececec"/>
          <path id="Контур_300" data-name="Контур 300" d="M214.674,88.755c1.432,1.432,3.852,1.542,6.383.54,2.363-.937,3.878-3.963,2.635-5.206l-4.351-4.351c-1.243-1.243-4.27.272-5.206,2.635-1,2.53-.892,4.951.54,6.383" transform="translate(-112.902 -41.936)" fill="#f5f5f5"/>
          <path id="Контур_301" data-name="Контур 301" d="M240.726,70.974a4.449,4.449,0,1,1,0-6.292,4.449,4.449,0,0,1,0,6.292" transform="translate(-123.298 -33.52)" fill="#fafafa"/>
          <path id="Контур_302" data-name="Контур 302" d="M389.315,156.316h0a10.532,10.532,0,0,1-13.541-6.1L355.442,96.562a10.5,10.5,0,1,1,19.64-7.443l20.333,53.655a10.532,10.532,0,0,1-6.1,13.541" transform="translate(-187.627 -43.549)" fill="#e1e1e1"/>
          <path id="Контур_303" data-name="Контур 303" d="M393.894,156.316h0a10.532,10.532,0,0,1-13.541-6.1L360.021,96.562a10.5,10.5,0,1,1,19.64-7.443l20.333,53.655a10.532,10.532,0,0,1-6.1,13.541" transform="translate(-190.049 -43.549)" fill="#f0f0f0"/>
          <path id="Контур_304" data-name="Контур 304" d="M398.475,157.987a.665.665,0,0,1-.6-.4L376.556,101.34a.649.649,0,0,1,.36-.8l2.594-.983a.533.533,0,0,1,.2-.038.664.664,0,0,1,.6.4l21.315,56.248a.646.646,0,0,1-.361.8l-2.593.982a.533.533,0,0,1-.2.038" transform="translate(-199.133 -52.634)" fill="#e1e1e1"/>
          <path id="Контур_305" data-name="Контур 305" d="M409.234,212.317a13.8,13.8,0,0,0-13.577,11.319c-.537,2.958-1.064,5.918-1.78,8.838L389.7,249.519h39.064l-4.175-17.046c-.716-2.92-1.243-5.88-1.78-8.838a13.8,13.8,0,0,0-13.577-11.319" transform="translate(-206.105 -112.29)" fill="#e1e1e1"/>
          <path id="Контур_306" data-name="Контур 306" d="M413.812,212.317a13.8,13.8,0,0,0-13.577,11.319c-.537,2.958-1.064,5.918-1.78,8.838l-4.175,17.045h39.064l-4.175-17.046c-.716-2.92-1.243-5.88-1.78-8.838a13.8,13.8,0,0,0-13.577-11.319" transform="translate(-208.527 -112.29)" fill="#f5f5f5"/>
          <path id="Контур_307" data-name="Контур 307" d="M380.647,94.32a9.632,9.632,0,1,1-9.633-9.633,9.633,9.633,0,0,1,9.633,9.633" transform="translate(-191.127 -44.789)" fill="#fafafa"/>
          <path id="Контур_308" data-name="Контур 308" d="M373.044,104.174a7.824,7.824,0,1,1,7.824-7.824,7.833,7.833,0,0,1-7.824,7.824m0-15.27a7.446,7.446,0,1,0,7.446,7.446,7.454,7.454,0,0,0-7.446-7.446" transform="translate(-193.157 -46.819)" fill="#e1e1e1"/>
          <rect id="Прямоугольник_134" data-name="Прямоугольник 134" width="28.245" height="26.451" transform="translate(73.864 110.678)" fill="#f5f5f5"/>
          <rect id="Прямоугольник_135" data-name="Прямоугольник 135" width="8.493" height="26.451" transform="translate(65.371 110.678)" fill="#e7e7e7"/>
          <rect id="Прямоугольник_136" data-name="Прямоугольник 136" width="24.03" height="16.268" transform="translate(75.347 94.409)" fill="#f0f0f0"/>
          <rect id="Прямоугольник_137" data-name="Прямоугольник 137" width="7.226" height="16.268" transform="translate(99.376 94.409)" fill="#e1e1e1"/>
          <rect id="Прямоугольник_138" data-name="Прямоугольник 138" width="20.906" height="24.568" transform="translate(115.041 112.56)" fill="#e7e7e7"/>
          <path id="Контур_309" data-name="Контур 309" d="M265.344,263.786H248.527V244.094h16.817Zm-16.412-.4H264.94V244.5H248.932Z" transform="translate(-131.441 -129.096)" fill="#f5f5f5"/>
          <rect id="Прямоугольник_139" data-name="Прямоугольник 139" width="6.287" height="24.568" transform="translate(135.948 112.56)" fill="#f5f5f5"/>
          <rect id="Прямоугольник_140" data-name="Прямоугольник 140" width="20.907" height="24.568" transform="translate(62.588 58.809)" fill="#e7e7e7"/>
          <rect id="Прямоугольник_141" data-name="Прямоугольник 141" width="6.287" height="24.568" transform="translate(83.495 58.809)" fill="#f5f5f5"/>
          <path id="Контур_310" data-name="Контур 310" d="M297.278,234.133H195.091V163.144a2.011,2.011,0,0,1,2.011-2.011h98.165a2.011,2.011,0,0,1,2.011,2.011Z" transform="translate(-103.18 -85.22)" fill="#1e2e35"/>
          <rect id="Прямоугольник_142" data-name="Прямоугольник 142" width="98.163" height="62.74" transform="translate(93.924 80.42)" fill="#43a1f6"/>
          <g id="Сгруппировать_188" data-name="Сгруппировать 188" transform="translate(141.132 77.364)" opacity="0.2" style="mix-blend-mode: normal;isolation: isolate">
            <g id="Сгруппировать_187" data-name="Сгруппировать 187">
              <g id="Сгруппировать_186" data-name="Сгруппировать 186" clip-path="url(#clip-path-3)">
                <path id="Контур_311" data-name="Контур 311" d="M301.525,165.193a.979.979,0,1,1-.979-.979.979.979,0,0,1,.979.979" transform="translate(-299.567 -164.214)" fill="#fff"/>
              </g>
            </g>
          </g>
          <g id="Сгруппировать_191" data-name="Сгруппировать 191" transform="translate(143.403 77.606)" opacity="0.2" style="mix-blend-mode: normal;isolation: isolate">
            <g id="Сгруппировать_190" data-name="Сгруппировать 190">
              <g id="Сгруппировать_189" data-name="Сгруппировать 189" clip-path="url(#clip-path-4)">
                <path id="Контур_312" data-name="Контур 312" d="M305.862,165.464a.737.737,0,1,1-.737-.737.737.737,0,0,1,.737.737" transform="translate(-304.388 -164.727)" fill="#fff"/>
              </g>
            </g>
          </g>
          <g id="Сгруппировать_194" data-name="Сгруппировать 194" transform="translate(141.72 144.375)" opacity="0.2" style="mix-blend-mode: normal;isolation: isolate">
            <g id="Сгруппировать_193" data-name="Сгруппировать 193">
              <g id="Сгруппировать_192" data-name="Сгруппировать 192" clip-path="url(#clip-path-5)">
                <path id="Контур_313" data-name="Контур 313" d="M302.5,306.52a1.271,1.271,0,0,0-.4-.07,1.285,1.285,0,1,0,1.285,1.285c0-.024-.006-.047-.007-.07a1.277,1.277,0,0,1-.877-1.144" transform="translate(-300.815 -306.45)" fill="#fff"/>
              </g>
            </g>
          </g>
          <path id="Контур_314" data-name="Контур 314" d="M296.344,313.969v.923a1.367,1.367,0,0,1-.971,1.3l-7.119,2.1a9.5,9.5,0,0,1-2.723.4H189.739a9.488,9.488,0,0,1-2.718-.4l-7.119-2.1a1.364,1.364,0,0,1-.975-1.3v-.923Z" transform="translate(-94.631 -166.052)" fill="#1e2e35"/>
          <g id="Сгруппировать_197" data-name="Сгруппировать 197" transform="translate(84.296 147.917)" opacity="0.2" style="mix-blend-mode: normal;isolation: isolate">
            <g id="Сгруппировать_196" data-name="Сгруппировать 196">
              <g id="Сгруппировать_195" data-name="Сгруппировать 195" clip-path="url(#clip-path-6)">
                <path id="Контур_315" data-name="Контур 315" d="M296.344,313.969v.923a1.367,1.367,0,0,1-.971,1.3l-7.119,2.1a9.5,9.5,0,0,1-2.723.4H189.739a9.488,9.488,0,0,1-2.718-.4l-7.119-2.1a1.364,1.364,0,0,1-.975-1.3v-.923Z" transform="translate(-178.927 -313.969)" fill="#fff"/>
              </g>
            </g>
          </g>
          <g id="Сгруппировать_200" data-name="Сгруппировать 200" transform="translate(84.296 147.917)" opacity="0.2" style="mix-blend-mode: normal;isolation: isolate">
            <g id="Сгруппировать_199" data-name="Сгруппировать 199">
              <g id="Сгруппировать_198" data-name="Сгруппировать 198" clip-path="url(#clip-path-7)">
                <path id="Контур_316" data-name="Контур 316" d="M296.343,313.969v.923a1.343,1.343,0,0,1-.193.693H179.119a1.343,1.343,0,0,1-.193-.693v-.923Z" transform="translate(-178.926 -313.969)" fill="#fff"/>
              </g>
            </g>
          </g>
          <g id="Сгруппировать_203" data-name="Сгруппировать 203" transform="translate(134.744 147.917)" opacity="0.2" style="mix-blend-mode: normal;isolation: isolate">
            <g id="Сгруппировать_202" data-name="Сгруппировать 202">
              <g id="Сгруппировать_201" data-name="Сгруппировать 201" clip-path="url(#clip-path-8)">
                <path id="Контур_317" data-name="Контур 317" d="M302.529,313.969v.405a.4.4,0,0,1-.4.4H286.412a.4.4,0,0,1-.4-.4v-.405Z" transform="translate(-286.007 -313.969)"/>
              </g>
            </g>
          </g>
          <g id="Сгруппировать_206" data-name="Сгруппировать 206" transform="translate(93.924 80.42)" opacity="0.1" style="mix-blend-mode: normal;isolation: isolate">
            <g id="Сгруппировать_205" data-name="Сгруппировать 205">
              <g id="Сгруппировать_204" data-name="Сгруппировать 204" clip-path="url(#clip-path-9)">
                <path id="Контур_318" data-name="Контур 318" d="M297.525,170.7s-13.574,53.884-98.163,62.74V170.7Z" transform="translate(-199.362 -170.7)" fill="#fff"/>
              </g>
            </g>
          </g>
          <g id="Сгруппировать_209" data-name="Сгруппировать 209" transform="translate(96.754 83.334)" opacity="0.61">
            <g id="Сгруппировать_208" data-name="Сгруппировать 208">
              <g id="Сгруппировать_207" data-name="Сгруппировать 207" clip-path="url(#clip-path-10)">
                <path id="Контур_319" data-name="Контур 319" d="M296.878,229.3H207.018a1.648,1.648,0,0,1-1.648-1.647V178.531a1.648,1.648,0,0,1,1.648-1.647h89.861a1.648,1.648,0,0,1,1.647,1.647v49.116a1.648,1.648,0,0,1-1.647,1.647" transform="translate(-205.37 -176.884)" fill="#fff"/>
              </g>
            </g>
          </g>
          <g id="Сгруппировать_212" data-name="Сгруппировать 212" transform="translate(99.759 85.656)" opacity="0.3">
            <g id="Сгруппировать_211" data-name="Сгруппировать 211">
              <g id="Сгруппировать_210" data-name="Сгруппировать 210" clip-path="url(#clip-path-11)">
                <path id="Контур_320" data-name="Контур 320" d="M297.162,213.717H213.414a1.667,1.667,0,0,1-1.667-1.667V183.48a1.667,1.667,0,0,1,1.667-1.667h83.748a1.666,1.666,0,0,1,1.666,1.667V212.05a1.666,1.666,0,0,1-1.666,1.667" transform="translate(-211.747 -181.813)" fill="#227dfa"/>
              </g>
            </g>
          </g>
          <path id="Контур_321" data-name="Контур 321" d="M241.427,202.619l-10.947-3.985A11.65,11.65,0,0,1,252.9,200.6Z" transform="translate(-121.896 -101)" fill="#227dfa"/>
          <path id="Контур_322" data-name="Контур 322" d="M240.639,211.224l11.473-2.023a11.65,11.65,0,1,1-22.421-1.962Z" transform="translate(-121.108 -109.604)" fill="#fff"/>
          <rect id="Прямоугольник_152" data-name="Прямоугольник 152" width="4.416" height="13.151" transform="translate(146.921 100.09)" fill="#fff"/>
          <rect id="Прямоугольник_153" data-name="Прямоугольник 153" width="4.416" height="6.157" transform="translate(139.413 107.084)" fill="#fff"/>
          <rect id="Прямоугольник_154" data-name="Прямоугольник 154" width="4.416" height="3.754" transform="translate(139.413 103.33)" fill="#227dfa"/>
          <rect id="Прямоугольник_155" data-name="Прямоугольник 155" width="4.416" height="8.019" transform="translate(146.921 92.071)" fill="#227dfa"/>
          <rect id="Прямоугольник_156" data-name="Прямоугольник 156" width="4.416" height="10.757" transform="translate(154.429 102.485)" fill="#fff"/>
          <rect id="Прямоугольник_157" data-name="Прямоугольник 157" width="4.416" height="4.931" transform="translate(154.429 97.554)" fill="#227dfa"/>
          <rect id="Прямоугольник_158" data-name="Прямоугольник 158" width="4.416" height="13.151" transform="translate(168.644 100.09)" fill="#fff"/>
          <rect id="Прямоугольник_159" data-name="Прямоугольник 159" width="4.416" height="6.157" transform="translate(161.137 107.084)" fill="#fff"/>
          <rect id="Прямоугольник_160" data-name="Прямоугольник 160" width="4.416" height="3.754" transform="translate(161.137 103.33)" fill="#227dfa"/>
          <rect id="Прямоугольник_161" data-name="Прямоугольник 161" width="4.416" height="8.019" transform="translate(168.644 92.071)" fill="#227dfa"/>
          <rect id="Прямоугольник_162" data-name="Прямоугольник 162" width="4.416" height="10.757" transform="translate(176.152 102.485)" fill="#fff"/>
          <rect id="Прямоугольник_163" data-name="Прямоугольник 163" width="4.416" height="4.931" transform="translate(176.152 97.554)" fill="#227dfa"/>
          <path id="Контур_323" data-name="Контур 323" d="M214.365,256.777a2.181,2.181,0,1,1-2.18,2.18,2.183,2.183,0,0,1,2.18-2.18m0-.436a2.617,2.617,0,1,0,2.617,2.617,2.617,2.617,0,0,0-2.617-2.617" transform="translate(-111.989 -135.574)" fill="#1e2e35"/>
          <path id="Контур_324" data-name="Контур 324" d="M229.453,256.777a2.181,2.181,0,1,1-2.18,2.18,2.183,2.183,0,0,1,2.18-2.18m0-.436a2.617,2.617,0,1,0,2.617,2.617,2.617,2.617,0,0,0-2.617-2.617" transform="translate(-119.969 -135.574)" fill="#227dfa"/>
          <path id="Контур_325" data-name="Контур 325" d="M256.167,275.387a1.129,1.129,0,1,1-1.129-1.129,1.129,1.129,0,0,1,1.129,1.129" transform="translate(-134.287 -145.049)" fill="#227dfa"/>
          <g id="Сгруппировать_215" data-name="Сгруппировать 215" transform="translate(114.656 129.209)" opacity="0.3">
            <g id="Сгруппировать_214" data-name="Сгруппировать 214">
              <g id="Сгруппировать_213" data-name="Сгруппировать 213" clip-path="url(#clip-path-12)">
                <path id="Контур_326" data-name="Контур 326" d="M245.627,275.387a1.129,1.129,0,1,1-1.129-1.129,1.129,1.129,0,0,1,1.129,1.129" transform="translate(-243.368 -274.258)" fill="#227dfa"/>
              </g>
            </g>
          </g>
          <path id="Контур_327" data-name="Контур 327" d="M235.087,275.387a1.129,1.129,0,1,1-1.129-1.129,1.129,1.129,0,0,1,1.129,1.129" transform="translate(-123.138 -145.049)" fill="#227dfa"/>
          <path id="Контур_328" data-name="Контур 328" d="M224.547,275.387a1.129,1.129,0,1,1-1.129-1.129,1.129,1.129,0,0,1,1.129,1.129" transform="translate(-117.564 -145.049)" fill="#227dfa"/>
          <path id="Контур_329" data-name="Контур 329" d="M214.007,275.387a1.129,1.129,0,1,1-1.129-1.129,1.129,1.129,0,0,1,1.129,1.129" transform="translate(-111.989 -145.049)" fill="#227dfa"/>
        </g>
      </g>
    </g>
  </g>
</svg>
