<svg id="ICON_RS" data-name="ICON RS" xmlns="http://www.w3.org/2000/svg" xmlns:xlink="http://www.w3.org/1999/xlink" width="188.881" height="146.064" viewBox="0 0 188.881 146.064">
  <defs>
    <clipPath id="clip-path">
      <rect id="Прямоугольник_194" data-name="Прямоугольник 194" width="188.881" height="146.064" fill="none"/>
    </clipPath>
    <clipPath id="clip-path-2">
      <rect id="Прямоугольник_193" data-name="Прямоугольник 193" width="188.882" height="146.064" fill="none"/>
    </clipPath>
    <clipPath id="clip-path-3">
      <rect id="Прямоугольник_190" data-name="Прямоугольник 190" width="132.865" height="22.46" fill="none"/>
    </clipPath>
    <clipPath id="clip-path-4">
      <rect id="Прямоугольник_192" data-name="Прямоугольник 192" width="6.54" height="12.691" fill="none"/>
    </clipPath>
  </defs>
  <g id="Сгруппировать_229" data-name="Сгруппировать 229" opacity="0.826">
    <g id="Сгруппировать_228" data-name="Сгруппировать 228" clip-path="url(#clip-path)">
      <rect id="Прямоугольник_167" data-name="Прямоугольник 167" width="8.319" height="123.015" transform="translate(135.06 0)" fill="#b8c0c7"/>
      <rect id="Прямоугольник_168" data-name="Прямоугольник 168" width="6.915" height="123.015" transform="translate(45.252 0)" fill="#b8c0c7"/>
      <rect id="Прямоугольник_169" data-name="Прямоугольник 169" width="89.808" height="3.202" transform="translate(45.252 0)" fill="#b8c0c7"/>
      <rect id="Прямоугольник_170" data-name="Прямоугольник 170" width="89.807" height="3.201" transform="translate(45.252 58.306)" fill="#b8c0c7"/>
      <rect id="Прямоугольник_171" data-name="Прямоугольник 171" width="89.807" height="3.202" transform="translate(45.252 107.207)" fill="#b8c0c7"/>
      <rect id="Прямоугольник_172" data-name="Прямоугольник 172" width="19.743" height="20.181" transform="translate(71.119 87.447)" fill="#2b6eb2"/>
      <rect id="Прямоугольник_173" data-name="Прямоугольник 173" width="19.743" height="20.181" transform="translate(61.247 87.447)" fill="#43a1f6"/>
      <path id="Контур_330" data-name="Контур 330" d="M539.584,617.318h-3.128l.276-1.091-.276-.78h3.128Z" transform="translate(-448.734 -514.809)" fill="#384152"/>
      <path id="Контур_331" data-name="Контур 331" d="M479.286,563.395h-3.128l.276-1.091-.276-.78h3.128Z" transform="translate(-398.296 -469.703)" fill="#618dc1"/>
      <path id="Контур_332" data-name="Контур 332" d="M495.29,561.524h3.128l-.276,1.091.276.78H495.29Z" transform="translate(-414.299 -469.703)" fill="#384152"/>
      <path id="Контур_333" data-name="Контур 333" d="M374.551,628.215h3.128l-.275,1.091.275.78h-3.128Z" transform="translate(-313.304 -525.489)" fill="#618dc1"/>
      <rect id="Прямоугольник_174" data-name="Прямоугольник 174" width="5.681" height="2.74" transform="translate(62.54 88.815)" fill="#d4d5d9"/>
      <rect id="Прямоугольник_175" data-name="Прямоугольник 175" width="17.096" height="17.476" transform="translate(72.447 17.866)" fill="#2b6eb2"/>
      <rect id="Прямоугольник_176" data-name="Прямоугольник 176" width="17.096" height="17.476" transform="translate(63.898 17.866)" fill="#43a1f6"/>
      <path id="Контур_334" data-name="Контур 334" d="M533.672,180.738h-2.709l.239-.945-.239-.675h2.709Z" transform="translate(-444.14 -149.828)" fill="#384152"/>
      <path id="Контур_335" data-name="Контур 335" d="M481.458,134.043h-2.709l.239-.945-.239-.675h2.709Z" transform="translate(-400.464 -110.769)" fill="#618dc1"/>
      <path id="Контур_336" data-name="Контур 336" d="M495.316,132.423h2.709l-.239.945.239.675h-2.709Z" transform="translate(-414.322 -110.769)" fill="#384152"/>
      <path id="Контур_337" data-name="Контур 337" d="M390.764,190.174h2.709l-.238.945.238.675h-2.709Z" transform="translate(-326.866 -159.076)" fill="#618dc1"/>
      <rect id="Прямоугольник_177" data-name="Прямоугольник 177" width="4.92" height="2.373" transform="translate(65.018 19.051)" fill="#d4d5d9"/>
      <rect id="Прямоугольник_178" data-name="Прямоугольник 178" width="17.096" height="17.476" transform="translate(102.935 17.866)" fill="#2b6eb2"/>
      <rect id="Прямоугольник_179" data-name="Прямоугольник 179" width="17.096" height="17.476" transform="translate(94.387 17.866)" fill="#43a1f6"/>
      <path id="Контур_338" data-name="Контур 338" d="M720.122,180.738h-2.709l.239-.945-.239-.675h2.709Z" transform="translate(-600.101 -149.828)" fill="#384152"/>
      <path id="Контур_339" data-name="Контур 339" d="M667.908,134.043H665.2l.239-.945-.239-.675h2.709Z" transform="translate(-556.425 -110.769)" fill="#618dc1"/>
      <path id="Контур_340" data-name="Контур 340" d="M681.766,132.423h2.709l-.239.945.239.675h-2.709Z" transform="translate(-570.283 -110.769)" fill="#384152"/>
      <path id="Контур_341" data-name="Контур 341" d="M577.214,190.174h2.709l-.238.945.238.675h-2.709Z" transform="translate(-482.827 -159.076)" fill="#618dc1"/>
      <rect id="Прямоугольник_180" data-name="Прямоугольник 180" width="4.92" height="2.373" transform="translate(95.506 19.051)" fill="#d4d5d9"/>
      <rect id="Прямоугольник_181" data-name="Прямоугольник 181" width="23.078" height="23.591" transform="translate(104.999 84.037)" fill="#2b6eb2"/>
      <rect id="Прямоугольник_182" data-name="Прямоугольник 182" width="23.078" height="23.591" transform="translate(93.459 84.037)" fill="#43a1f6"/>
      <path id="Контур_342" data-name="Контур 342" d="M764.454,610.414H760.8l.322-1.276-.322-.912h3.657Z" transform="translate(-636.391 -508.769)" fill="#384152"/>
      <path id="Контур_343" data-name="Контур 343" d="M693.97,547.381h-3.657l.322-1.276-.322-.911h3.657Z" transform="translate(-577.433 -456.043)" fill="#618dc1"/>
      <path id="Контур_344" data-name="Контур 344" d="M712.677,545.194h3.657l-.322,1.276.322.912h-3.657Z" transform="translate(-596.14 -456.043)" fill="#384152"/>
      <path id="Контур_345" data-name="Контур 345" d="M571.542,623.152H575.2l-.322,1.276.322.912h-3.657Z" transform="translate(-478.082 -521.253)" fill="#618dc1"/>
      <rect id="Прямоугольник_183" data-name="Прямоугольник 183" width="6.641" height="3.203" transform="translate(94.971 85.637)" fill="#d4d5d9"/>
      <rect id="Прямоугольник_184" data-name="Прямоугольник 184" width="22.72" height="23.225" transform="translate(67.574 35.446)" fill="#2b6eb2"/>
      <rect id="Прямоугольник_185" data-name="Прямоугольник 185" width="22.72" height="23.225" transform="translate(56.214 35.446)" fill="#43a1f6"/>
      <path id="Контур_346" data-name="Контур 346" d="M533.692,311.765h-3.6l.317-1.256-.317-.9h3.6Z" transform="translate(-443.411 -258.984)" fill="#384152"/>
      <path id="Контур_347" data-name="Контур 347" d="M464.3,249.71h-3.6l.317-1.256-.317-.9h3.6Z" transform="translate(-385.366 -207.076)" fill="#618dc1"/>
      <path id="Контур_348" data-name="Контур 348" d="M482.718,247.556h3.6L486,248.812l.317.9h-3.6Z" transform="translate(-403.783 -207.075)" fill="#384152"/>
      <path id="Контур_349" data-name="Контур 349" d="M343.77,324.305h3.6l-.317,1.256.317.9h-3.6Z" transform="translate(-287.556 -271.274)" fill="#618dc1"/>
      <rect id="Прямоугольник_186" data-name="Прямоугольник 186" width="6.538" height="3.153" transform="translate(57.702 37.021)" fill="#d4d5d9"/>
      <rect id="Прямоугольник_187" data-name="Прямоугольник 187" width="22.693" height="23.197" transform="translate(101.627 35.474)" fill="#2b6eb2"/>
      <rect id="Прямоугольник_188" data-name="Прямоугольник 188" width="22.693" height="23.197" transform="translate(90.281 35.474)" fill="#43a1f6"/>
      <path id="Контур_350" data-name="Контур 350" d="M741.8,311.821h-3.6l.317-1.254-.317-.9h3.6Z" transform="translate(-617.49 -259.033)" fill="#384152"/>
      <path id="Контур_351" data-name="Контур 351" d="M672.489,249.839h-3.6l.317-1.255-.317-.9h3.6Z" transform="translate(-559.515 -207.186)" fill="#618dc1"/>
      <path id="Контур_352" data-name="Контур 352" d="M690.884,247.689h3.6l-.317,1.254.317.9h-3.6Z" transform="translate(-577.91 -207.186)" fill="#384152"/>
      <path id="Контур_353" data-name="Контур 353" d="M552.1,324.346h3.6l-.317,1.254.317.9h-3.6Z" transform="translate(-461.822 -271.309)" fill="#618dc1"/>
      <rect id="Прямоугольник_189" data-name="Прямоугольник 189" width="6.53" height="3.15" transform="translate(91.766 37.047)" fill="#d4d5d9"/>
      <g id="Сгруппировать_227" data-name="Сгруппировать 227">
        <g id="Сгруппировать_226" data-name="Сгруппировать 226" clip-path="url(#clip-path-2)">
          <g id="Сгруппировать_222" data-name="Сгруппировать 222" transform="translate(28.379 123.605)" opacity="0.4">
            <g id="Сгруппировать_221" data-name="Сгруппировать 221">
              <g id="Сгруппировать_220" data-name="Сгруппировать 220" clip-path="url(#clip-path-3)">
                <path id="Контур_354" data-name="Контур 354" d="M183.66,773.941H299.947a7.933,7.933,0,1,0,0-15.866H183.66a7.933,7.933,0,0,0,0,15.866" transform="translate(-175.371 -757.719)" fill="#b8c0c7"/>
                <path id="Контур_355" data-name="Контур 355" d="M175.728,766.006a7.932,7.932,0,0,0,7.933,7.934h19.718a.765.765,0,0,0,.765-.765V758.838a.765.765,0,0,0-.765-.765H183.661a7.933,7.933,0,0,0-7.933,7.933" transform="translate(-175.372 -757.717)" fill="#b8c0c7"/>
                <path id="Контур_356" data-name="Контур 356" d="M210.557,853.259c.03.1.061.2.091.3q.4,1.282.879,2.6.066.184.136.368.585,1.574,1.293,3.2v0l11.484.005,105.435.053v-6.539Z" transform="translate(-204.506 -837.338)" fill="#d4d5d9"/>
                <path id="Контур_357" data-name="Контур 357" d="M726.245,774.8l.311.854.007.021a.217.217,0,0,0,.256.135l.737-.18a.186.186,0,0,1,.037-.006.214.214,0,0,1,.2.116,3.786,3.786,0,0,0,.936,1.169.285.285,0,0,1,.041.045.222.222,0,0,1,.014.216l-.281.569a.22.22,0,0,0,.023.227.242.242,0,0,0,.056.052l.783.5a.222.222,0,0,0,.3-.054l.51-.671a.214.214,0,0,1,.215-.079c.118.024.236.043.357.056a3.89,3.89,0,0,0,.67.014h0a.218.218,0,0,1,.215.125l.361.777.018.039a.214.214,0,0,0,.267.112l.874-.318a.226.226,0,0,0,.14-.263l-.2-.821a.214.214,0,0,1,.095-.235,3.828,3.828,0,0,0,.877-.777.217.217,0,0,1,.263-.055l.673.33a.222.222,0,0,0,.285-.08l.5-.787a.211.211,0,0,0-.051-.281l-.788-.6a.223.223,0,0,1-.084-.217c.02-.1.035-.205.047-.311a3.864,3.864,0,0,0,.019-.584.209.209,0,0,1,.123-.2l.934-.432a.218.218,0,0,0,.113-.272l-.319-.877a.218.218,0,0,0-.224-.142l-.031.005-.911.223a.213.213,0,0,1-.225-.079.069.069,0,0,1-.014-.019.6.6,0,0,0-.037-.057,3.857,3.857,0,0,0-.5-.633.209.209,0,0,1-.039-.245l.349-.712a.22.22,0,0,0-.081-.284l-.174-.111-.608-.385a.218.218,0,0,0-.291.052l-.5.661a.211.211,0,0,1-.23.074,3.819,3.819,0,0,0-.7-.142,3.645,3.645,0,0,0-.533-.02l-.075-.163-.311-.668a.209.209,0,0,0-.211-.122.169.169,0,0,0-.055.013l-.879.318a.219.219,0,0,0-.136.255l.138.561a.217.217,0,0,1-.107.242,3.8,3.8,0,0,0-.959.723.211.211,0,0,1-.249.044l-.851-.418a.209.209,0,0,0-.268.076l-.5.8a.213.213,0,0,0,.051.284l.82.625a.216.216,0,0,1,.079.23,3.566,3.566,0,0,0-.107.572c-.012.106-.019.211-.022.316a.217.217,0,0,1-.125.191l-.895.415a.221.221,0,0,0-.115.274m6.033-2.509.085.052a1.987,1.987,0,0,1,.681.846,2.48,2.48,0,0,1,.121.456A2.043,2.043,0,0,1,730.7,776a2.357,2.357,0,0,1-.734-.307,1.3,1.3,0,0,1-.16-.119,2.058,2.058,0,0,1,2.468-3.281" transform="translate(-635.858 -767.091)" fill="#677282"/>
                <path id="Контур_358" data-name="Контур 358" d="M689.428,805.8l.224.615.005.014a.156.156,0,0,0,.183.1l.53-.13a.136.136,0,0,1,.026,0,.154.154,0,0,1,.147.082,2.722,2.722,0,0,0,.674.842.141.141,0,0,1,.029.032.159.159,0,0,1,.011.155l-.2.409a.16.16,0,0,0,.017.163.169.169,0,0,0,.04.037l.564.358a.16.16,0,0,0,.212-.038l.366-.483a.154.154,0,0,1,.155-.057c.085.016.17.031.256.04a2.7,2.7,0,0,0,.481.01h0a.156.156,0,0,1,.154.09l.26.559.014.028a.152.152,0,0,0,.191.079l.629-.228a.161.161,0,0,0,.1-.189l-.144-.59a.155.155,0,0,1,.068-.17,2.728,2.728,0,0,0,.631-.558.155.155,0,0,1,.189-.04l.486.237a.158.158,0,0,0,.2-.058l.36-.566a.151.151,0,0,0-.037-.2l-.566-.432a.158.158,0,0,1-.06-.156c.014-.073.025-.148.033-.223a2.762,2.762,0,0,0,.013-.421.154.154,0,0,1,.088-.147l.672-.311a.158.158,0,0,0,.081-.2l-.229-.63a.157.157,0,0,0-.161-.1.1.1,0,0,0-.023,0l-.655.16a.154.154,0,0,1-.162-.056.063.063,0,0,1-.009-.014c-.009-.015-.017-.028-.027-.042a2.751,2.751,0,0,0-.363-.455.151.151,0,0,1-.027-.176l.251-.512a.159.159,0,0,0-.059-.2l-.125-.08-.438-.277a.158.158,0,0,0-.209.038l-.361.475a.151.151,0,0,1-.165.053,2.764,2.764,0,0,0-.5-.1,2.921,2.921,0,0,0-.384-.014l-.054-.116-.223-.481a.151.151,0,0,0-.153-.088.131.131,0,0,0-.04.009l-.633.229a.159.159,0,0,0-.1.184l.1.4a.155.155,0,0,1-.077.173,2.75,2.75,0,0,0-.691.52.152.152,0,0,1-.179.032l-.612-.3a.152.152,0,0,0-.193.055l-.363.573a.152.152,0,0,0,.037.2l.59.45a.158.158,0,0,1,.056.166,2.627,2.627,0,0,0-.077.411c-.008.077-.014.152-.015.228a.157.157,0,0,1-.089.137l-.644.3a.158.158,0,0,0-.083.2m4.339-1.8.061.038a1.435,1.435,0,0,1,.49.608,1.785,1.785,0,0,1,.086.328,1.47,1.47,0,0,1-1.77,1.693,1.691,1.691,0,0,1-.527-.221.842.842,0,0,1-.115-.086,1.48,1.48,0,0,1,1.775-2.36" transform="translate(-605.064 -794.32)" fill="#677282"/>
                <path id="Контур_359" data-name="Контур 359" d="M516.378,774.8l.312.854.007.021a.217.217,0,0,0,.255.135l.738-.18a.172.172,0,0,1,.036-.006.214.214,0,0,1,.2.116,3.793,3.793,0,0,0,.936,1.169.217.217,0,0,1,.04.045.221.221,0,0,1,.014.216l-.28.569a.22.22,0,0,0,.022.227.267.267,0,0,0,.056.052l.784.5a.222.222,0,0,0,.3-.054l.51-.671a.215.215,0,0,1,.216-.079c.117.024.236.043.357.056a3.88,3.88,0,0,0,.669.014h0a.217.217,0,0,1,.214.125l.361.777.019.039a.214.214,0,0,0,.267.112l.873-.318a.225.225,0,0,0,.14-.263l-.2-.821a.215.215,0,0,1,.095-.235,3.808,3.808,0,0,0,.878-.777.218.218,0,0,1,.263-.055l.675.33a.22.22,0,0,0,.284-.08l.5-.787a.211.211,0,0,0-.051-.281l-.788-.6a.222.222,0,0,1-.083-.217c.019-.1.035-.205.046-.311a3.741,3.741,0,0,0,.019-.584.209.209,0,0,1,.123-.2l.934-.432a.217.217,0,0,0,.113-.272l-.319-.877a.218.218,0,0,0-.224-.142c-.01,0-.021,0-.031.005l-.911.223a.213.213,0,0,1-.225-.079.1.1,0,0,1-.014-.019.641.641,0,0,0-.037-.057,3.766,3.766,0,0,0-.5-.633.211.211,0,0,1-.039-.245l.349-.712a.221.221,0,0,0-.081-.284l-.173-.111-.609-.385a.217.217,0,0,0-.29.052l-.5.661a.21.21,0,0,1-.23.074,3.816,3.816,0,0,0-.7-.142,3.645,3.645,0,0,0-.533-.02l-.075-.163-.311-.668a.211.211,0,0,0-.212-.122.166.166,0,0,0-.054.013l-.88.318a.22.22,0,0,0-.136.255l.139.561a.218.218,0,0,1-.107.242,3.793,3.793,0,0,0-.96.723.21.21,0,0,1-.248.044l-.852-.418a.21.21,0,0,0-.268.076l-.5.8a.211.211,0,0,0,.05.284l.82.625a.215.215,0,0,1,.078.23,3.685,3.685,0,0,0-.107.572c-.012.106-.018.211-.021.316a.218.218,0,0,1-.125.191l-.895.415a.221.221,0,0,0-.115.274m6.032-2.509.086.052a1.988,1.988,0,0,1,.68.846,2.563,2.563,0,0,1,.122.456,2.043,2.043,0,0,1-2.46,2.353,2.363,2.363,0,0,1-.735-.307,1.309,1.309,0,0,1-.16-.119,2.058,2.058,0,0,1,2.468-3.281" transform="translate(-460.308 -767.091)" fill="#677282"/>
                <path id="Контур_360" data-name="Контур 360" d="M479.56,805.8l.223.615.006.014a.156.156,0,0,0,.183.1l.531-.13a.13.13,0,0,1,.026,0,.152.152,0,0,1,.146.082,2.732,2.732,0,0,0,.673.842.145.145,0,0,1,.03.032.159.159,0,0,1,.01.155l-.2.409a.156.156,0,0,0,.057.2l.564.358a.159.159,0,0,0,.212-.038l.368-.483a.152.152,0,0,1,.154-.057c.085.016.17.031.256.04a2.707,2.707,0,0,0,.482.01h0a.157.157,0,0,1,.154.09l.259.559.014.028a.153.153,0,0,0,.192.079l.628-.228a.161.161,0,0,0,.1-.189l-.145-.59a.157.157,0,0,1,.068-.17,2.735,2.735,0,0,0,.632-.558.155.155,0,0,1,.189-.04l.485.237a.159.159,0,0,0,.2-.058l.359-.566a.152.152,0,0,0-.036-.2l-.567-.432a.16.16,0,0,1-.06-.156c.014-.073.026-.148.034-.223a2.739,2.739,0,0,0,.014-.421.151.151,0,0,1,.088-.147l.671-.311a.157.157,0,0,0,.081-.2l-.229-.63a.157.157,0,0,0-.161-.1.1.1,0,0,0-.023,0l-.655.16a.156.156,0,0,1-.163-.056l-.009-.014a.374.374,0,0,0-.027-.042,2.79,2.79,0,0,0-.362-.455.15.15,0,0,1-.028-.176l.251-.512a.158.158,0,0,0-.058-.2l-.125-.08-.438-.277a.157.157,0,0,0-.209.038l-.362.475a.15.15,0,0,1-.165.053,2.748,2.748,0,0,0-.5-.1,2.908,2.908,0,0,0-.383-.014l-.054-.116-.224-.481a.151.151,0,0,0-.153-.088.119.119,0,0,0-.039.009l-.633.229a.158.158,0,0,0-.1.184l.1.4a.156.156,0,0,1-.078.173,2.751,2.751,0,0,0-.69.52.153.153,0,0,1-.179.032l-.613-.3a.152.152,0,0,0-.193.055l-.362.573a.152.152,0,0,0,.036.2l.59.45a.154.154,0,0,1,.056.166,2.627,2.627,0,0,0-.077.411c-.008.077-.013.152-.016.228a.155.155,0,0,1-.089.137l-.644.3a.158.158,0,0,0-.082.2M483.9,804l.061.038a1.429,1.429,0,0,1,.489.608,1.865,1.865,0,0,1,.088.328,1.47,1.47,0,0,1-1.77,1.693,1.7,1.7,0,0,1-.528-.221.948.948,0,0,1-.115-.086A1.48,1.48,0,0,1,483.9,804" transform="translate(-429.513 -794.32)" fill="#677282"/>
                <path id="Контур_361" data-name="Контур 361" d="M633.752,775.946l.082.906,0,.022a.217.217,0,0,0,.211.2l.759.014a.231.231,0,0,1,.037,0,.212.212,0,0,1,.167.163,3.8,3.8,0,0,0,.606,1.37.272.272,0,0,1,.028.054.22.22,0,0,1-.042.212l-.416.478a.221.221,0,0,0-.036.227.243.243,0,0,0,.041.064l.63.682a.221.221,0,0,0,.3.023l.665-.518a.214.214,0,0,1,.228-.022c.107.053.217.1.331.145a3.764,3.764,0,0,0,.644.184h0a.217.217,0,0,1,.175.177l.15.842.008.042a.215.215,0,0,0,.23.176l.926-.084a.222.222,0,0,0,.2-.217l.016-.845a.215.215,0,0,1,.152-.2,3.8,3.8,0,0,0,1.047-.526.219.219,0,0,1,.268.014l.567.493a.221.221,0,0,0,.3-.005l.685-.633a.212.212,0,0,0,.024-.284l-.609-.783a.223.223,0,0,1-.024-.232c.045-.094.087-.19.125-.288a3.811,3.811,0,0,0,.168-.561.21.21,0,0,1,.171-.165l1.013-.18a.217.217,0,0,0,.179-.233l-.083-.929a.22.22,0,0,0-.181-.194.117.117,0,0,0-.031,0l-.938-.018a.216.216,0,0,1-.2-.134.083.083,0,0,1-.007-.022c-.007-.022-.013-.043-.022-.064a3.808,3.808,0,0,0-.325-.741.209.209,0,0,1,.025-.246l.52-.6a.221.221,0,0,0-.006-.3l-.14-.152-.49-.528a.217.217,0,0,0-.294-.024l-.656.51a.211.211,0,0,1-.241.013,3.932,3.932,0,0,0-.637-.316,3.811,3.811,0,0,0-.51-.155l-.031-.177-.129-.725a.212.212,0,0,0-.173-.173.192.192,0,0,0-.056,0l-.933.082a.219.219,0,0,0-.2.213l-.01.577a.218.218,0,0,1-.165.207,3.8,3.8,0,0,0-1.113.452.21.21,0,0,1-.251-.02l-.717-.623a.209.209,0,0,0-.278,0l-.692.641a.213.213,0,0,0-.024.287l.633.814a.215.215,0,0,1,.016.243,3.738,3.738,0,0,0-.249.525c-.038.1-.072.2-.1.3a.218.218,0,0,1-.169.153l-.972.172a.221.221,0,0,0-.181.236m6.474-.88c.023.024.046.048.069.073a1.984,1.984,0,0,1,.442.991,2.569,2.569,0,0,1,0,.472,2.044,2.044,0,0,1-2.981,1.644,2.333,2.333,0,0,1-.631-.485,1.492,1.492,0,0,1-.125-.156,2.086,2.086,0,0,1-.337-.878,2.063,2.063,0,0,1,3.563-1.661" transform="translate(-558.499 -769.1)" fill="#677282"/>
                <path id="Контур_362" data-name="Контур 362" d="M175.979,770.047a8.289,8.289,0,0,1,5.861-14.151H298.127a8.289,8.289,0,1,1,0,16.578H181.841a8.234,8.234,0,0,1-5.861-2.428m5.861-13.439a7.577,7.577,0,1,0,0,15.155H298.127a7.577,7.577,0,1,0,0-15.155Z" transform="translate(-173.552 -755.896)" fill="#151f2c"/>
              </g>
            </g>
          </g>
          <path id="Контур_363" data-name="Контур 363" d="M.445,755.693H188.436a.445.445,0,1,0,0-.891H.445a.445.445,0,1,0,0,.891" transform="translate(0 -631.376)" fill="#384152"/>
          <g id="Сгруппировать_225" data-name="Сгруппировать 225" transform="translate(150.479 55.162)" opacity="0.4">
            <g id="Сгруппировать_224" data-name="Сгруппировать 224">
              <g id="Сгруппировать_223" data-name="Сгруппировать 223" clip-path="url(#clip-path-4)">
                <rect id="Прямоугольник_191" data-name="Прямоугольник 191" width="6.54" height="12.691" transform="translate(0 0)" fill="#b8c0c7"/>
              </g>
            </g>
          </g>
          <path id="Контур_364" data-name="Контур 364" d="M933.5,388.082a.245.245,0,0,1-.173-.072l-1.074-1.074a.245.245,0,1,1,.347-.347l.9.9.9-.9a.245.245,0,1,1,.347.347l-1.074,1.074a.245.245,0,0,1-.174.072" transform="translate(-779.746 -323.314)" fill="#384152"/>
          <path id="Контур_365" data-name="Контур 365" d="M934.569,353.284a.244.244,0,0,1-.173-.072l-.9-.9-.9.9a.245.245,0,1,1-.347-.347l1.074-1.074a.245.245,0,0,1,.347,0l1.074,1.074a.245.245,0,0,1-.173.419" transform="translate(-779.746 -294.206)" fill="#384152"/>
        </g>
      </g>
    </g>
  </g>
</svg>
