<svg id="ICON_SGCL" data-name="ICON SGCL" xmlns="http://www.w3.org/2000/svg" xmlns:xlink="http://www.w3.org/1999/xlink" width="172.243" height="98.628" viewBox="0 0 172.243 98.628">
  <defs>
    <clipPath id="clip-path">
      <rect id="Прямоугольник_39" data-name="Прямоугольник 39" width="172.243" height="98.628" fill="none"/>
    </clipPath>
    <clipPath id="clip-path-3">
      <rect id="Прямоугольник_31" data-name="Прямоугольник 31" width="46.808" height="73.893" fill="none"/>
    </clipPath>
    <clipPath id="clip-path-4">
      <rect id="Прямоугольник_32" data-name="Прямоугольник 32" width="46.648" height="73.893" fill="none"/>
    </clipPath>
    <clipPath id="clip-path-5">
      <rect id="Прямоугольник_37" data-name="Прямоугольник 37" width="86.427" height="87.398" fill="none"/>
    </clipPath>
  </defs>
  <g id="Сгруппировать_57" data-name="Сгруппировать 57" clip-path="url(#clip-path)">
    <rect id="Прямоугольник_30" data-name="Прямоугольник 30" width="73.3" height="73.893" transform="translate(53.085 2.274)" fill="#9fd1f7"/>
    <g id="Сгруппировать_56" data-name="Сгруппировать 56">
      <g id="Сгруппировать_55" data-name="Сгруппировать 55" clip-path="url(#clip-path)">
        <g id="Сгруппировать_48" data-name="Сгруппировать 48" transform="translate(53.086 2.274)" opacity="0.31">
          <g id="Сгруппировать_47" data-name="Сгруппировать 47">
            <g id="Сгруппировать_46" data-name="Сгруппировать 46" clip-path="url(#clip-path-3)">
              <path id="Контур_100" data-name="Контур 100" d="M72.171,76.813,111.44,3.093h7.539l-39.8,73.893Z" transform="translate(-72.171 -3.092)" fill="#fff"/>
            </g>
          </g>
        </g>
        <g id="Сгруппировать_51" data-name="Сгруппировать 51" transform="translate(68.257 2.274)" opacity="0.17">
          <g id="Сгруппировать_50" data-name="Сгруппировать 50">
            <g id="Сгруппировать_49" data-name="Сгруппировать 49" clip-path="url(#clip-path-4)">
              <path id="Контур_101" data-name="Контур 101" d="M92.8,76.813l39.8-73.72h6.847L101.029,76.985Z" transform="translate(-92.796 -3.092)" fill="#fff"/>
            </g>
          </g>
        </g>
        <g id="Сгруппировать_54" data-name="Сгруппировать 54" transform="translate(46.995)" opacity="0.4">
          <g id="Сгруппировать_53" data-name="Сгруппировать 53">
            <g id="Сгруппировать_52" data-name="Сгруппировать 52" clip-path="url(#clip-path-5)">
              <rect id="Прямоугольник_33" data-name="Прямоугольник 33" width="7.328" height="87.398" transform="translate(79.099)" fill="#b8c0c7"/>
              <rect id="Прямоугольник_34" data-name="Прямоугольник 34" width="6.091" height="87.398" transform="translate(0)" fill="#b8c0c7"/>
              <rect id="Прямоугольник_35" data-name="Прямоугольник 35" width="79.099" height="2.274" transform="translate(0 0)" fill="#b8c0c7"/>
              <rect id="Прямоугольник_36" data-name="Прямоугольник 36" width="79.099" height="2.274" transform="translate(0 76.168)" fill="#b8c0c7"/>
            </g>
          </g>
        </g>
        <path id="Контур_102" data-name="Контур 102" d="M155.257,125.191H42.076a5.14,5.14,0,1,1,0-10.279H155.257a5.14,5.14,0,1,1,0,10.279" transform="translate(-9.768 -30.388)" fill="#b8c0c7"/>
        <path id="Контур_103" data-name="Контур 103" d="M44.538,128.06c.027.065.057.13.085.2q.369.832.812,1.688c.041.08.083.16.126.239q.54,1.021,1.195,2.078h0l10.612,0,97.43.035v-4.24Z" transform="translate(-11.778 -33.865)" fill="#d4d5d9"/>
        <path id="Контур_104" data-name="Контур 104" d="M135.116,119.62l.193.533,0,.013a.136.136,0,0,0,.16.084l.459-.113.023,0a.134.134,0,0,1,.127.072,2.354,2.354,0,0,0,.583.728.225.225,0,0,1,.026.028.139.139,0,0,1,.009.135l-.175.355a.139.139,0,0,0,.015.142.143.143,0,0,0,.035.032l.488.31a.138.138,0,0,0,.184-.034l.318-.418a.135.135,0,0,1,.135-.05c.074.015.146.027.222.035a2.333,2.333,0,0,0,.417.008h0a.136.136,0,0,1,.134.079l.225.483.011.024a.133.133,0,0,0,.166.07l.545-.2a.14.14,0,0,0,.087-.164l-.125-.511a.134.134,0,0,1,.059-.146,2.4,2.4,0,0,0,.547-.483.133.133,0,0,1,.163-.035l.42.206a.138.138,0,0,0,.177-.05l.312-.491a.131.131,0,0,0-.032-.175l-.491-.374a.139.139,0,0,1-.053-.136c.013-.063.022-.127.029-.193a2.335,2.335,0,0,0,.012-.364.131.131,0,0,1,.076-.127l.582-.269a.136.136,0,0,0,.071-.169l-.2-.547a.136.136,0,0,0-.14-.088.176.176,0,0,0-.019,0l-.568.139a.133.133,0,0,1-.14-.049.035.035,0,0,1-.009-.012.318.318,0,0,0-.023-.035,2.348,2.348,0,0,0-.314-.394.131.131,0,0,1-.024-.152l.218-.444a.137.137,0,0,0-.05-.177l-.109-.069-.38-.24a.135.135,0,0,0-.181.032l-.313.411a.13.13,0,0,1-.143.046,2.371,2.371,0,0,0-.435-.088,2.282,2.282,0,0,0-.332-.013l-.046-.1-.194-.416a.13.13,0,0,0-.132-.076.1.1,0,0,0-.035.007l-.548.2a.135.135,0,0,0-.085.159l.086.349a.135.135,0,0,1-.067.151,2.361,2.361,0,0,0-.6.451.132.132,0,0,1-.155.027l-.531-.26a.131.131,0,0,0-.167.047l-.314.5a.132.132,0,0,0,.031.177l.511.389a.134.134,0,0,1,.049.143,2.331,2.331,0,0,0-.066.357c-.007.065-.012.132-.013.2a.136.136,0,0,1-.078.118l-.558.259a.136.136,0,0,0-.071.171m3.759-1.563.053.032a1.246,1.246,0,0,1,.424.527,1.576,1.576,0,0,1,.075.284,1.273,1.273,0,0,1-1.533,1.466,1.45,1.45,0,0,1-.458-.191.809.809,0,0,1-.1-.074,1.282,1.282,0,0,1,1.537-2.044" transform="translate(-35.729 -30.724)" fill="#677282"/>
        <path id="Контур_105" data-name="Контур 105" d="M130.014,123.164l.14.383,0,.009a.1.1,0,0,0,.114.061l.33-.082.016,0a.1.1,0,0,1,.092.051,1.7,1.7,0,0,0,.419.524.079.079,0,0,1,.018.02.1.1,0,0,1,.007.1l-.126.255a.1.1,0,0,0,.01.1.106.106,0,0,0,.025.023l.352.223a.1.1,0,0,0,.132-.024l.229-.3a.1.1,0,0,1,.1-.036c.052.01.105.019.16.025a1.705,1.705,0,0,0,.3.007h0a.1.1,0,0,1,.1.056l.162.348.009.018a.094.094,0,0,0,.119.049l.391-.142a.1.1,0,0,0,.063-.118l-.09-.367a.1.1,0,0,1,.043-.106,1.687,1.687,0,0,0,.393-.348.1.1,0,0,1,.118-.024l.3.148a.1.1,0,0,0,.127-.036l.224-.353a.094.094,0,0,0-.024-.126l-.352-.269a.1.1,0,0,1-.038-.1c.009-.046.015-.092.021-.139a1.653,1.653,0,0,0,.008-.262.1.1,0,0,1,.055-.092l.419-.193a.1.1,0,0,0,.051-.122l-.143-.393a.1.1,0,0,0-.1-.063l-.014,0-.409.1a.1.1,0,0,1-.1-.035l-.005-.009-.017-.026a1.671,1.671,0,0,0-.227-.283.1.1,0,0,1-.017-.11l.157-.318a.1.1,0,0,0-.037-.127l-.077-.05-.273-.173a.1.1,0,0,0-.131.024l-.225.3a.093.093,0,0,1-.1.034,1.683,1.683,0,0,0-.313-.064,1.866,1.866,0,0,0-.239-.009l-.034-.073-.139-.3a.1.1,0,0,0-.095-.055.111.111,0,0,0-.025.006l-.394.143a.1.1,0,0,0-.06.115l.062.252a.1.1,0,0,1-.048.107,1.711,1.711,0,0,0-.43.324.094.094,0,0,1-.112.02l-.381-.188a.1.1,0,0,0-.121.035l-.226.357a.094.094,0,0,0,.023.127l.367.28a.1.1,0,0,1,.035.1,1.609,1.609,0,0,0-.048.256c-.005.048-.009.094-.01.142a.1.1,0,0,1-.056.085l-.4.186a.1.1,0,0,0-.052.123m2.7-1.125.038.024a.9.9,0,0,1,.305.38,1.161,1.161,0,0,1,.054.2.916.916,0,0,1-1.1,1.055,1.056,1.056,0,0,1-.329-.138.494.494,0,0,1-.072-.054.922.922,0,0,1,1.106-1.47" transform="translate(-34.381 -31.916)" fill="#677282"/>
        <path id="Контур_106" data-name="Контур 106" d="M106.046,119.62l.194.533,0,.013a.135.135,0,0,0,.159.084l.46-.113.022,0a.133.133,0,0,1,.127.072,2.364,2.364,0,0,0,.583.728.151.151,0,0,1,.026.028.139.139,0,0,1,.009.135l-.174.355a.137.137,0,0,0,.014.142.158.158,0,0,0,.035.032l.488.31a.138.138,0,0,0,.184-.034l.318-.418a.134.134,0,0,1,.134-.05c.074.015.147.027.222.035a2.334,2.334,0,0,0,.417.008h0a.135.135,0,0,1,.133.079l.225.483.012.024a.133.133,0,0,0,.166.07l.544-.2a.14.14,0,0,0,.087-.164l-.125-.511a.135.135,0,0,1,.059-.146,2.383,2.383,0,0,0,.547-.483.134.134,0,0,1,.163-.035l.42.206a.137.137,0,0,0,.177-.05l.312-.491a.131.131,0,0,0-.032-.175l-.491-.374a.139.139,0,0,1-.052-.136c.012-.063.022-.127.029-.193a2.245,2.245,0,0,0,.012-.364.131.131,0,0,1,.076-.127l.582-.269a.136.136,0,0,0,.071-.169l-.2-.547a.137.137,0,0,0-.14-.088l-.019,0-.568.139a.133.133,0,0,1-.14-.049l-.009-.012a.318.318,0,0,0-.023-.035,2.275,2.275,0,0,0-.314-.394.132.132,0,0,1-.024-.152l.218-.444a.136.136,0,0,0-.05-.177l-.108-.069-.38-.24a.135.135,0,0,0-.181.032l-.313.411a.13.13,0,0,1-.143.046,2.375,2.375,0,0,0-.434-.088,2.3,2.3,0,0,0-.332-.013l-.046-.1-.193-.416a.131.131,0,0,0-.132-.076.09.09,0,0,0-.034.007l-.549.2a.136.136,0,0,0-.085.159l.087.349a.136.136,0,0,1-.067.151,2.351,2.351,0,0,0-.6.451.132.132,0,0,1-.155.027l-.531-.26a.131.131,0,0,0-.167.047l-.314.5a.131.131,0,0,0,.032.177l.511.389a.136.136,0,0,1,.049.143,2.333,2.333,0,0,0-.067.357c-.007.065-.011.132-.013.2a.137.137,0,0,1-.078.118l-.558.259a.138.138,0,0,0-.072.171m3.759-1.563.054.032a1.244,1.244,0,0,1,.424.527,1.644,1.644,0,0,1,.076.284,1.273,1.273,0,0,1-1.533,1.466,1.453,1.453,0,0,1-.458-.191.809.809,0,0,1-.1-.074,1.282,1.282,0,0,1,1.537-2.044" transform="translate(-28.042 -30.724)" fill="#677282"/>
        <path id="Контур_107" data-name="Контур 107" d="M100.945,123.164l.139.383,0,.009a.1.1,0,0,0,.114.061l.33-.082.017,0a.1.1,0,0,1,.091.051,1.707,1.707,0,0,0,.419.524.079.079,0,0,1,.018.02.1.1,0,0,1,.007.1l-.126.255a.1.1,0,0,0,.01.1.107.107,0,0,0,.025.023l.352.223a.1.1,0,0,0,.132-.024l.229-.3a.094.094,0,0,1,.1-.036c.053.01.106.019.16.025a1.712,1.712,0,0,0,.3.007h0a.1.1,0,0,1,.1.056l.161.348.009.018a.094.094,0,0,0,.119.049l.392-.142a.1.1,0,0,0,.063-.118l-.09-.367a.1.1,0,0,1,.043-.106,1.691,1.691,0,0,0,.394-.348.1.1,0,0,1,.118-.024l.3.148a.1.1,0,0,0,.127-.036l.224-.353a.094.094,0,0,0-.023-.126l-.353-.269a.1.1,0,0,1-.038-.1c.009-.046.016-.092.021-.139a1.745,1.745,0,0,0,.008-.262.094.094,0,0,1,.055-.092l.418-.193a.1.1,0,0,0,.051-.122l-.143-.393a.1.1,0,0,0-.1-.063l-.014,0-.408.1a.1.1,0,0,1-.1-.035l-.005-.009c-.006-.009-.01-.017-.017-.026a1.7,1.7,0,0,0-.226-.283.1.1,0,0,1-.018-.11l.157-.318a.1.1,0,0,0-.036-.127l-.078-.05-.273-.173a.1.1,0,0,0-.13.024l-.225.3a.1.1,0,0,1-.1.034,1.651,1.651,0,0,0-.312-.064,1.86,1.86,0,0,0-.238-.009l-.034-.073-.14-.3a.1.1,0,0,0-.095-.055.09.09,0,0,0-.024.006l-.394.143a.1.1,0,0,0-.061.115l.062.252a.1.1,0,0,1-.048.107,1.711,1.711,0,0,0-.43.324.093.093,0,0,1-.111.02l-.382-.188a.1.1,0,0,0-.121.035l-.226.357a.094.094,0,0,0,.023.127l.367.28a.1.1,0,0,1,.035.1,1.606,1.606,0,0,0-.048.256c-.005.048-.008.094-.01.142a.1.1,0,0,1-.056.085l-.4.186a.1.1,0,0,0-.051.123m2.7-1.125.038.024a.9.9,0,0,1,.305.38,1.233,1.233,0,0,1,.054.2.916.916,0,0,1-1.1,1.055,1.06,1.06,0,0,1-.33-.138.587.587,0,0,1-.072-.054.922.922,0,0,1,1.106-1.47" transform="translate(-26.693 -31.916)" fill="#677282"/>
        <path id="Контур_108" data-name="Контур 108" d="M122.3,119.172l.051.564v.013a.137.137,0,0,0,.132.123l.473.008.023,0a.13.13,0,0,1,.1.1,2.381,2.381,0,0,0,.378.853.121.121,0,0,1,.017.034.133.133,0,0,1-.025.132l-.26.3a.138.138,0,0,0-.023.141.178.178,0,0,0,.025.04l.393.425a.138.138,0,0,0,.186.015l.415-.323a.135.135,0,0,1,.143-.014,2.059,2.059,0,0,0,.205.09,2.29,2.29,0,0,0,.4.115h0a.135.135,0,0,1,.109.11l.093.525.005.026a.135.135,0,0,0,.143.11l.577-.052a.139.139,0,0,0,.126-.135l.01-.527a.134.134,0,0,1,.094-.127,2.368,2.368,0,0,0,.653-.328.137.137,0,0,1,.167.009l.353.307a.137.137,0,0,0,.184,0l.427-.394a.132.132,0,0,0,.015-.177l-.38-.488a.138.138,0,0,1-.015-.144c.029-.059.054-.118.078-.179a2.392,2.392,0,0,0,.1-.349.13.13,0,0,1,.107-.1l.631-.112a.134.134,0,0,0,.111-.146l-.051-.579a.137.137,0,0,0-.113-.121.055.055,0,0,0-.019,0l-.585-.012a.131.131,0,0,1-.122-.083.023.023,0,0,1-.005-.013.364.364,0,0,0-.014-.04,2.347,2.347,0,0,0-.2-.462.13.13,0,0,1,.015-.153l.324-.374a.137.137,0,0,0,0-.184l-.087-.095-.305-.329a.134.134,0,0,0-.182-.015l-.409.318a.132.132,0,0,1-.151.008,2.335,2.335,0,0,0-.715-.293l-.019-.11-.08-.452a.131.131,0,0,0-.107-.108.142.142,0,0,0-.035,0l-.581.051a.137.137,0,0,0-.123.132l-.006.36a.135.135,0,0,1-.1.129,2.361,2.361,0,0,0-.694.282.13.13,0,0,1-.157-.012l-.446-.388a.13.13,0,0,0-.174,0l-.43.4a.132.132,0,0,0-.015.179l.394.507a.134.134,0,0,1,.01.152,2.228,2.228,0,0,0-.155.327q-.036.093-.064.188a.136.136,0,0,1-.105.095l-.605.107a.137.137,0,0,0-.113.147m4.034-.549.042.046a1.236,1.236,0,0,1,.275.618,1.637,1.637,0,0,1,0,.294,1.273,1.273,0,0,1-1.858,1.024,1.459,1.459,0,0,1-.393-.3,1.057,1.057,0,0,1-.078-.1,1.305,1.305,0,0,1-.21-.547,1.286,1.286,0,0,1,2.221-1.035" transform="translate(-32.342 -30.812)" fill="#677282"/>
        <path id="Контур_109" data-name="Контур 109" d="M155.257,125.191H42.076a5.14,5.14,0,1,1,0-10.279H155.257a5.14,5.14,0,1,1,0,10.279Z" transform="translate(-9.768 -30.388)" fill="none" stroke="#151f2c" stroke-width="1"/>
        <path id="Контур_110" data-name="Контур 110" d="M.394,133.8H171.85a.393.393,0,1,0,0-.786H.394a.393.393,0,1,0,0,.786" transform="translate(0 -35.176)" fill="#384152"/>
      </g>
    </g>
  </g>
</svg>
