<svg id="ICON_FCL" data-name="ICON FCL" xmlns="http://www.w3.org/2000/svg" xmlns:xlink="http://www.w3.org/1999/xlink" width="220.293" height="115.569" viewBox="0 0 220.293 115.569">
  <defs>
    <clipPath id="clip-path">
      <rect id="Прямоугольник_29" data-name="Прямоугольник 29" width="220.293" height="115.569" transform="translate(0 0)" fill="none"/>
    </clipPath>
  </defs>
  <g id="Сгруппировать_45" data-name="Сгруппировать 45" transform="translate(0 0.001)" opacity="0.847">
    <g id="Сгруппировать_44" data-name="Сгруппировать 44" transform="translate(0 -0.001)" clip-path="url(#clip-path)">
      <path id="Контур_61" data-name="Контур 61" d="M162.519,526.552l.393-.116a6.522,6.522,0,0,1,4.2-8.193l8.452-2.487a3.381,3.381,0,0,0,2.178-4.247c-1.741-5.915,1.418-12.073,7.041-13.728l-.122-.414c-5.84,1.718-9.12,8.114-7.312,14.257a2.96,2.96,0,0,1-1.907,3.718l-8.452,2.487a6.944,6.944,0,0,0-4.473,8.722" transform="translate(-142.44 -436.736)" fill="#384152"/>
      <path id="Контур_62" data-name="Контур 62" d="M169.521,550.347l.393-.116a6.522,6.522,0,0,1,4.2-8.193l8.452-2.487a3.381,3.381,0,0,0,2.179-4.247c-1.741-5.915,1.418-12.074,7.041-13.728l-.122-.414c-5.84,1.718-9.12,8.114-7.312,14.257a2.96,2.96,0,0,1-1.907,3.718l-8.452,2.487a6.944,6.944,0,0,0-4.473,8.722" transform="translate(-148.589 -457.63)" fill="#384152"/>
      <rect id="Прямоугольник_19" data-name="Прямоугольник 19" width="17.797" height="14.675" transform="translate(64.844 49.86)" fill="#2b6eb2"/>
      <rect id="Прямоугольник_20" data-name="Прямоугольник 20" width="17.797" height="14.675" transform="translate(73.742 49.86)" fill="#43a1f6"/>
      <path id="Контур_63" data-name="Контур 63" d="M532.01,489.062h2.82l-.248-.793.248-.567h-2.82Z" transform="translate(-467.156 -428.249)" fill="#de6b4d"/>
      <path id="Контур_64" data-name="Контур 64" d="M604.921,436.465h2.82l-.248-.794.248-.567h-2.82Z" transform="translate(-531.179 -382.063)" fill="#ee805f"/>
      <path id="Контур_65" data-name="Контур 65" d="M584.608,435.1h-2.82l.248.794-.248.567h2.82Z" transform="translate(-510.865 -382.063)" fill="#de6b4d"/>
      <path id="Контур_66" data-name="Контур 66" d="M730.6,500.154h-2.82l.248.794-.248.567h2.82Z" transform="translate(-639.062 -439.183)" fill="#ee805f"/>
      <rect id="Прямоугольник_21" data-name="Прямоугольник 21" width="5.121" height="1.992" transform="translate(85.253 50.855)" fill="#d4d5d9"/>
      <path id="Контур_67" data-name="Контур 67" d="M436.065,60.783c2.552,0,5.228-.4,6.713-1.262a8.768,8.768,0,0,1,5.389-.779l.073-.362a8.978,8.978,0,0,0-5.647.821c-2.449,1.413-8.536,1.539-11.291.6a35.047,35.047,0,0,0-7.817-1.919v.369a34.8,34.8,0,0,1,7.7,1.9,16.31,16.31,0,0,0,4.882.631" transform="translate(-371.86 -50.828)" fill="#384152"/>
      <rect id="Прямоугольник_22" data-name="Прямоугольник 22" width="1.167" height="7.614" transform="translate(78.873 36.335)" fill="#384152"/>
      <rect id="Прямоугольник_23" data-name="Прямоугольник 23" width="1.167" height="7.614" transform="translate(76.562 36.335)" fill="#384152"/>
      <path id="Контур_68" data-name="Контур 68" d="M436.065,54.057c2.552,0,5.228-.4,6.713-1.262a8.768,8.768,0,0,1,5.389-.779l.073-.362a8.978,8.978,0,0,0-5.647.821c-2.449,1.413-8.536,1.539-11.291.6a35.047,35.047,0,0,0-7.817-1.919v.369a34.8,34.8,0,0,1,7.7,1.9,16.31,16.31,0,0,0,4.882.631" transform="translate(-371.86 -44.922)" fill="#384152"/>
      <path id="Контур_69" data-name="Контур 69" d="M293.075,72.537h.485v-.369h-.485A4.075,4.075,0,0,1,289,68.1V25.961a4.075,4.075,0,0,1,4.07-4.071h3.593v-.369h-3.593a4.445,4.445,0,0,0-4.44,4.44V68.1a4.445,4.445,0,0,0,4.44,4.44" transform="translate(-253.449 -18.897)" fill="#384152"/>
      <path id="Контур_70" data-name="Контур 70" d="M305.978,83.124v-.369a2.834,2.834,0,0,1-2.831-2.831V40.756a2.749,2.749,0,0,1,2.746-2.746h2.848v-.369h-2.848a3.119,3.119,0,0,0-3.115,3.115V79.924a3.2,3.2,0,0,0,3.2,3.2" transform="translate(-265.867 -33.052)" fill="#384152"/>
      <path id="Контур_71" data-name="Контур 71" d="M583.588,112.236h10.083a2.6,2.6,0,0,0,2.6-2.6V87.112a2.6,2.6,0,0,0-2.6-2.6H583.588a2.6,2.6,0,0,0-2.6,2.6v22.527a2.6,2.6,0,0,0,2.6,2.6" transform="translate(-510.165 -74.211)" fill="#b8c0c7"/>
      <path id="Контур_72" data-name="Контур 72" d="M663.715,107.295a1.33,1.33,0,1,0-1.33,1.33,1.33,1.33,0,0,0,1.33-1.33" transform="translate(-580.471 -93.047)" fill="#dde7fe"/>
      <path id="Контур_73" data-name="Контур 73" d="M663.715,262.8a1.33,1.33,0,1,0-1.33,1.33,1.33,1.33,0,0,0,1.33-1.33" transform="translate(-580.471 -229.598)" fill="#dde7fe"/>
      <path id="Контур_74" data-name="Контур 74" d="M607.1,107.295a1.33,1.33,0,1,0-1.33,1.33,1.33,1.33,0,0,0,1.33-1.33" transform="translate(-530.756 -93.047)" fill="#dde7fe"/>
      <path id="Контур_75" data-name="Контур 75" d="M607.1,262.8a1.33,1.33,0,1,0-1.33,1.33,1.33,1.33,0,0,0,1.33-1.33" transform="translate(-530.756 -229.598)" fill="#dde7fe"/>
      <path id="Контур_76" data-name="Контур 76" d="M597.106,348.669a1.927,1.927,0,0,0,.174.793h10.442a1.927,1.927,0,0,0,.174-.793c0-1.73-2.416-3.133-5.4-3.133s-5.4,1.4-5.4,3.133" transform="translate(-524.316 -303.414)" fill="#43a1f6"/>
      <path id="Контур_77" data-name="Контур 77" d="M522.92,370.685v14.191a3.462,3.462,0,0,0,1.5,2.85l4.328,2.985a.682.682,0,0,0,.949-.174h0a.682.682,0,0,0-.174-.949l-4.328-2.985a2.1,2.1,0,0,1-.906-1.726V370.685a2.779,2.779,0,0,1,2.779-2.779h20.59a2.779,2.779,0,0,1,2.779,2.779V384.8a2.083,2.083,0,0,1-.986,1.778l-4.835,3.023a.682.682,0,0,0,.723,1.157l4.836-3.022A3.442,3.442,0,0,0,551.8,384.8v-14.11a4.144,4.144,0,0,0-4.144-4.144h-20.59a4.144,4.144,0,0,0-4.144,4.144" transform="translate(-459.174 -321.858)" fill="#384152"/>
      <rect id="Прямоугольник_24" data-name="Прямоугольник 24" width="28.371" height="0.854" transform="translate(50.506 1.77)" fill="#384152"/>
      <rect id="Прямоугольник_25" data-name="Прямоугольник 25" width="28.371" height="0.854" transform="translate(50.506 4.162)" fill="#384152"/>
      <path id="Контур_78" data-name="Контур 78" d="M611.492,10.3h8.46V4.367a4.367,4.367,0,1,0-8.735,0v5.66a.275.275,0,0,0,.275.275" transform="translate(-536.707 0)" fill="#43a1f6"/>
      <path id="Контур_79" data-name="Контур 79" d="M340.652,0h4.312a3.673,3.673,0,0,1,3.673,3.673V80.627a3.673,3.673,0,0,1-3.673,3.673h-4.312a3.673,3.673,0,0,1-3.673-3.673V3.673A3.673,3.673,0,0,1,340.652,0" transform="translate(-295.9 0)" fill="#b8c0c7"/>
      <path id="Контур_80" data-name="Контур 80" d="M380.59,28.714a.678.678,0,1,0-.678.678.678.678,0,0,0,.678-.678" transform="translate(-333.004 -24.618)" fill="#384152"/>
      <path id="Контур_81" data-name="Контур 81" d="M330.826,153.666h10.429a1.8,1.8,0,0,0,1.795-1.795V99.23a1.8,1.8,0,0,0-1.795-1.795H330.826a1.8,1.8,0,0,0-1.795,1.795v52.642a1.8,1.8,0,0,0,1.795,1.795" transform="translate(-288.921 -85.557)" fill="#677282"/>
      <path id="Контур_82" data-name="Контур 82" d="M322.343,658.312h13.1a1.736,1.736,0,0,0,1.736-1.736v-5.991a1.736,1.736,0,0,0-1.736-1.736H324.079a1.736,1.736,0,0,0-1.736,1.736Z" transform="translate(-283.048 -569.751)" fill="#677282"/>
      <path id="Контур_83" data-name="Контур 83" d="M631.027,15.539a2.582,2.582,0,1,0-2.582,2.582,2.582,2.582,0,0,0,2.582-2.582" transform="translate(-549.568 -11.377)" fill="#43a1f6"/>
      <path id="Контур_84" data-name="Контур 84" d="M625.206,14.962a2.662,2.662,0,1,1,2.662,2.662,2.665,2.665,0,0,1-2.662-2.662m.16,0a2.5,2.5,0,1,0,2.5-2.5,2.5,2.5,0,0,0-2.5,2.5" transform="translate(-548.991 -10.8)" fill="#384152"/>
      <path id="Контур_85" data-name="Контур 85" d="M637.268,22.787a1.576,1.576,0,1,0-1.576,1.576,1.576,1.576,0,0,0,1.576-1.576" transform="translate(-556.815 -18.625)" fill="#2b6eb2"/>
      <path id="Контур_86" data-name="Контур 86" d="M58.412,745.135H195.134a9.327,9.327,0,0,0,0-18.654H58.412a9.327,9.327,0,0,0,0,18.654" transform="translate(-43.101 -637.92)" fill="#b8c0c7"/>
      <path id="Контур_87" data-name="Контур 87" d="M49.087,735.8a9.326,9.326,0,0,0,9.327,9.328H81.6a.9.9,0,0,0,.9-.9V727.378a.9.9,0,0,0-.9-.9H58.414a9.327,9.327,0,0,0-9.327,9.327" transform="translate(-43.103 -637.917)" fill="#b8c0c7"/>
      <path id="Контур_88" data-name="Контур 88" d="M104.016,876.6c.035.118.072.236.107.355q.47,1.508,1.034,3.062.078.216.16.433.687,1.85,1.52,3.768s0,0,0,0l13.5.006,123.963.063V876.6Z" transform="translate(-91.336 -769.736)" fill="#d4d5d9"/>
      <path id="Контур_89" data-name="Контур 89" d="M917.309,750.642l.366,1,.008.024a.256.256,0,0,0,.3.159l.866-.212a.2.2,0,0,1,.044-.008.252.252,0,0,1,.24.136,4.448,4.448,0,0,0,1.1,1.375.319.319,0,0,1,.048.053.261.261,0,0,1,.017.254l-.33.669a.259.259,0,0,0,.028.267.273.273,0,0,0,.066.06l.922.585a.261.261,0,0,0,.347-.064l.6-.789a.252.252,0,0,1,.253-.093c.139.028.277.051.419.066a4.545,4.545,0,0,0,.788.016h0a.256.256,0,0,1,.253.148l.425.913.021.046a.252.252,0,0,0,.314.132l1.028-.374a.265.265,0,0,0,.165-.309l-.237-.965a.252.252,0,0,1,.112-.276,4.5,4.5,0,0,0,1.032-.913.255.255,0,0,1,.309-.065l.792.388a.261.261,0,0,0,.336-.094l.588-.926a.248.248,0,0,0-.06-.33l-.927-.707a.262.262,0,0,1-.1-.256c.023-.12.041-.241.055-.365a4.541,4.541,0,0,0,.022-.687.247.247,0,0,1,.144-.24l1.1-.508a.257.257,0,0,0,.133-.32l-.375-1.031a.257.257,0,0,0-.263-.167c-.012,0-.024,0-.036.006l-1.071.262a.25.25,0,0,1-.264-.092.082.082,0,0,1-.016-.022c-.014-.022-.027-.045-.044-.067a4.541,4.541,0,0,0-.592-.744.246.246,0,0,1-.046-.288l.41-.838a.258.258,0,0,0-.095-.333l-.2-.131-.715-.452a.256.256,0,0,0-.342.06l-.59.777a.248.248,0,0,1-.271.087,4.465,4.465,0,0,0-.82-.167,4.269,4.269,0,0,0-.626-.023l-.088-.192-.366-.786a.245.245,0,0,0-.248-.143.2.2,0,0,0-.065.015l-1.034.373a.258.258,0,0,0-.16.3l.162.659a.255.255,0,0,1-.126.284,4.463,4.463,0,0,0-1.127.85.249.249,0,0,1-.293.052l-1-.491a.246.246,0,0,0-.315.089l-.593.936a.25.25,0,0,0,.059.333l.964.735a.254.254,0,0,1,.093.271,4.2,4.2,0,0,0-.125.673c-.014.124-.022.248-.025.372a.255.255,0,0,1-.146.224l-1.052.488a.26.26,0,0,0-.136.323m7.093-2.95.1.062a2.336,2.336,0,0,1,.8.995,2.915,2.915,0,0,1,.142.536,2.4,2.4,0,0,1-2.893,2.766,2.771,2.771,0,0,1-.863-.361,1.589,1.589,0,0,1-.188-.14,2.419,2.419,0,0,1,2.9-3.858" transform="translate(-805.472 -653.438)" fill="#677282"/>
      <path id="Контур_90" data-name="Контур 90" d="M859.246,800.157l.263.723.006.017a.183.183,0,0,0,.216.114l.623-.153a.156.156,0,0,1,.031,0,.181.181,0,0,1,.173.1,3.2,3.2,0,0,0,.792.989.169.169,0,0,1,.034.038.187.187,0,0,1,.013.183l-.238.481a.188.188,0,0,0,.02.192.206.206,0,0,0,.047.044l.663.42a.188.188,0,0,0,.249-.045l.431-.568a.18.18,0,0,1,.183-.067c.1.019.2.036.3.047a3.183,3.183,0,0,0,.566.011h0a.184.184,0,0,1,.181.106l.306.657.016.033a.179.179,0,0,0,.225.093l.739-.269a.189.189,0,0,0,.119-.222l-.17-.693a.182.182,0,0,1,.08-.2,3.22,3.22,0,0,0,.742-.656.183.183,0,0,1,.222-.047l.571.279a.186.186,0,0,0,.24-.068l.423-.665a.178.178,0,0,0-.043-.238l-.666-.508a.186.186,0,0,1-.071-.184c.017-.086.03-.174.039-.262a3.264,3.264,0,0,0,.016-.495.18.18,0,0,1,.1-.173l.79-.365a.185.185,0,0,0,.1-.23l-.27-.741a.185.185,0,0,0-.189-.12.125.125,0,0,0-.027.005l-.771.188a.181.181,0,0,1-.19-.066.061.061,0,0,1-.01-.016c-.011-.017-.02-.033-.032-.049a3.222,3.222,0,0,0-.427-.535.178.178,0,0,1-.032-.207l.3-.6a.188.188,0,0,0-.069-.24l-.147-.095-.515-.326a.186.186,0,0,0-.246.045l-.425.558a.178.178,0,0,1-.194.063,3.21,3.21,0,0,0-.589-.12,3.407,3.407,0,0,0-.451-.017l-.064-.137-.262-.566a.178.178,0,0,0-.18-.1.152.152,0,0,0-.047.01l-.744.269a.186.186,0,0,0-.115.216l.117.475a.183.183,0,0,1-.09.2,3.235,3.235,0,0,0-.812.611.178.178,0,0,1-.21.038l-.72-.355a.179.179,0,0,0-.227.065l-.427.673a.179.179,0,0,0,.044.24l.693.529a.185.185,0,0,1,.066.2,3.076,3.076,0,0,0-.09.483c-.01.09-.016.178-.018.268a.185.185,0,0,1-.105.161l-.757.351a.186.186,0,0,0-.1.231m5.1-2.122.072.044a1.686,1.686,0,0,1,.576.716,2.1,2.1,0,0,1,.1.385,1.728,1.728,0,0,1-2.081,1.99,2,2,0,0,1-.62-.26,1,1,0,0,1-.136-.1,1.74,1.74,0,0,1,2.087-2.775" transform="translate(-754.491 -698.517)" fill="#677282"/>
      <path id="Контур_91" data-name="Контур 91" d="M586.325,750.642l.366,1,.008.024a.255.255,0,0,0,.3.159l.867-.212a.194.194,0,0,1,.042-.008.251.251,0,0,1,.24.136,4.461,4.461,0,0,0,1.1,1.375.245.245,0,0,1,.048.053.261.261,0,0,1,.017.254l-.329.669a.259.259,0,0,0,.026.267.3.3,0,0,0,.066.06l.922.585a.261.261,0,0,0,.347-.064l.6-.789a.253.253,0,0,1,.254-.093c.138.028.277.051.419.066a4.534,4.534,0,0,0,.786.016h0a.254.254,0,0,1,.251.148l.425.913.022.046a.251.251,0,0,0,.314.132l1.026-.374a.264.264,0,0,0,.165-.309l-.237-.965a.253.253,0,0,1,.111-.276,4.477,4.477,0,0,0,1.032-.913.256.256,0,0,1,.309-.065l.793.388a.259.259,0,0,0,.334-.094l.588-.926a.248.248,0,0,0-.059-.33l-.927-.707a.261.261,0,0,1-.1-.256c.022-.12.041-.241.054-.365a4.41,4.41,0,0,0,.022-.687.247.247,0,0,1,.144-.24l1.1-.508a.256.256,0,0,0,.133-.32l-.375-1.031a.257.257,0,0,0-.263-.167c-.012,0-.024,0-.036.006l-1.071.262a.251.251,0,0,1-.264-.092.116.116,0,0,1-.016-.022c-.014-.022-.027-.045-.044-.067a4.424,4.424,0,0,0-.592-.744.248.248,0,0,1-.046-.288l.411-.838a.259.259,0,0,0-.1-.333l-.2-.131-.716-.452a.255.255,0,0,0-.341.06l-.591.777a.248.248,0,0,1-.271.087,4.467,4.467,0,0,0-.819-.167,4.272,4.272,0,0,0-.626-.023l-.088-.192-.365-.786a.247.247,0,0,0-.249-.143.191.191,0,0,0-.064.015l-1.035.373a.259.259,0,0,0-.16.3l.164.659a.256.256,0,0,1-.126.284,4.449,4.449,0,0,0-1.128.85.247.247,0,0,1-.292.052l-1-.491a.246.246,0,0,0-.315.089l-.592.936a.248.248,0,0,0,.059.333l.964.735a.253.253,0,0,1,.091.271,4.322,4.322,0,0,0-.125.673c-.014.124-.021.248-.025.372a.257.257,0,0,1-.147.224l-1.052.488a.26.26,0,0,0-.136.323m7.092-2.95.1.062a2.336,2.336,0,0,1,.8.995,3.021,3.021,0,0,1,.143.536,2.4,2.4,0,0,1-2.893,2.766,2.778,2.778,0,0,1-.864-.361,1.588,1.588,0,0,1-.188-.14,2.419,2.419,0,0,1,2.9-3.858" transform="translate(-514.836 -653.438)" fill="#677282"/>
      <path id="Контур_92" data-name="Контур 92" d="M528.26,800.157l.262.723.006.017a.183.183,0,0,0,.216.114l.624-.153a.149.149,0,0,1,.031,0,.178.178,0,0,1,.172.1,3.221,3.221,0,0,0,.792.989.171.171,0,0,1,.035.038.187.187,0,0,1,.012.183l-.237.481a.183.183,0,0,0,.067.236l.662.42a.188.188,0,0,0,.249-.045l.432-.568a.178.178,0,0,1,.181-.067c.1.019.2.036.3.047a3.2,3.2,0,0,0,.567.011h0a.184.184,0,0,1,.181.106l.3.657.016.033a.179.179,0,0,0,.226.093l.739-.269a.189.189,0,0,0,.118-.222l-.17-.693a.184.184,0,0,1,.08-.2,3.221,3.221,0,0,0,.743-.656.183.183,0,0,1,.222-.047l.57.279a.187.187,0,0,0,.241-.068l.423-.665a.179.179,0,0,0-.043-.238l-.667-.508a.188.188,0,0,1-.071-.184c.017-.086.031-.174.04-.262a3.232,3.232,0,0,0,.016-.495.178.178,0,0,1,.1-.173l.789-.365a.184.184,0,0,0,.1-.23l-.27-.741a.185.185,0,0,0-.189-.12.128.128,0,0,0-.027.005l-.77.188a.183.183,0,0,1-.191-.066l-.011-.016a.493.493,0,0,0-.032-.049,3.268,3.268,0,0,0-.426-.535.177.177,0,0,1-.033-.207l.3-.6a.186.186,0,0,0-.068-.24l-.148-.095-.515-.326a.184.184,0,0,0-.245.045l-.426.558a.177.177,0,0,1-.194.063,3.188,3.188,0,0,0-.589-.12,3.4,3.4,0,0,0-.45-.017l-.064-.137-.263-.566a.178.178,0,0,0-.179-.1.138.138,0,0,0-.046.01l-.744.269a.186.186,0,0,0-.116.216l.118.475a.183.183,0,0,1-.091.2,3.229,3.229,0,0,0-.811.611.179.179,0,0,1-.21.038l-.721-.355a.179.179,0,0,0-.227.065l-.426.673a.179.179,0,0,0,.042.24l.693.529a.181.181,0,0,1,.066.2,3.069,3.069,0,0,0-.09.483c-.01.09-.015.178-.018.268a.183.183,0,0,1-.105.161l-.757.351a.185.185,0,0,0-.1.231m5.1-2.122.072.044a1.679,1.679,0,0,1,.575.716,2.18,2.18,0,0,1,.1.385,1.728,1.728,0,0,1-2.081,1.99,2,2,0,0,1-.621-.26,1.156,1.156,0,0,1-.136-.1,1.74,1.74,0,0,1,2.087-2.775" transform="translate(-463.853 -698.517)" fill="#677282"/>
      <path id="Контур_93" data-name="Контур 93" d="M771.444,752.954l.1,1.065,0,.025a.255.255,0,0,0,.249.232l.893.016a.273.273,0,0,1,.044.005.248.248,0,0,1,.2.192,4.468,4.468,0,0,0,.712,1.61.305.305,0,0,1,.033.064.257.257,0,0,1-.049.249l-.489.562a.26.26,0,0,0-.042.266.291.291,0,0,0,.048.075l.741.8a.26.26,0,0,0,.351.028l.782-.609a.252.252,0,0,1,.269-.025c.126.063.255.12.388.171a4.437,4.437,0,0,0,.757.217h0a.256.256,0,0,1,.206.208l.176.99.01.05a.253.253,0,0,0,.271.207l1.088-.1a.262.262,0,0,0,.238-.255l.019-.994a.253.253,0,0,1,.178-.239,4.475,4.475,0,0,0,1.231-.619.257.257,0,0,1,.315.017l.667.58a.26.26,0,0,0,.347-.006l.806-.744a.249.249,0,0,0,.028-.334l-.716-.921a.261.261,0,0,1-.029-.273c.053-.11.1-.223.147-.339a4.526,4.526,0,0,0,.2-.659.247.247,0,0,1,.2-.194l1.191-.211a.255.255,0,0,0,.21-.274l-.1-1.092a.258.258,0,0,0-.212-.228.138.138,0,0,0-.036,0l-1.1-.021a.254.254,0,0,1-.233-.157.1.1,0,0,1-.008-.026c-.009-.025-.015-.05-.026-.075a4.467,4.467,0,0,0-.382-.872.245.245,0,0,1,.03-.289l.611-.7a.26.26,0,0,0-.006-.347l-.165-.178-.576-.621a.254.254,0,0,0-.345-.029l-.771.6a.248.248,0,0,1-.283.015,4.6,4.6,0,0,0-.75-.372,4.483,4.483,0,0,0-.6-.183l-.036-.208-.152-.853a.249.249,0,0,0-.2-.2.233.233,0,0,0-.066,0l-1.1.1a.258.258,0,0,0-.232.251l-.012.678a.257.257,0,0,1-.194.243,4.467,4.467,0,0,0-1.309.532.247.247,0,0,1-.3-.023l-.843-.733a.247.247,0,0,0-.327.005l-.813.754a.25.25,0,0,0-.029.338l.744.956a.254.254,0,0,1,.019.286,4.389,4.389,0,0,0-.293.618c-.045.117-.085.235-.12.354a.256.256,0,0,1-.2.179l-1.142.2a.26.26,0,0,0-.213.277m7.611-1.035c.028.029.054.056.081.086a2.331,2.331,0,0,1,.519,1.166,3.019,3.019,0,0,1,0,.555,2.4,2.4,0,0,1-3.505,1.933,2.75,2.75,0,0,1-.742-.57,1.742,1.742,0,0,1-.147-.183,2.42,2.42,0,0,1,3.793-2.986" transform="translate(-677.401 -656.763)" fill="#677282"/>
      <path id="Контур_94" data-name="Контур 94" d="M48.509,739.682A9.746,9.746,0,0,1,55.4,723.045H192.122a9.746,9.746,0,1,1,0,19.492H55.4a9.681,9.681,0,0,1-6.891-2.854m6.891-15.8a8.909,8.909,0,1,0,0,17.818H192.122a8.909,8.909,0,0,0,0-17.818Z" transform="translate(-40.089 -634.903)" fill="#151f2c"/>
      <rect id="Прямоугольник_26" data-name="Прямоугольник 26" width="18.246" height="15.045" transform="translate(97.391 73.093)" fill="#2b6eb2"/>
      <rect id="Прямоугольник_27" data-name="Прямоугольник 27" width="18.246" height="15.045" transform="translate(88.268 73.093)" fill="#43a1f6"/>
      <path id="Контур_95" data-name="Контур 95" d="M927.678,681.665h-2.891l.255-.813-.255-.581h2.891Z" transform="translate(-812.051 -597.343)" fill="#384152"/>
      <path id="Контур_96" data-name="Контур 96" d="M852.927,627.742h-2.891l.255-.814-.255-.581h2.891Z" transform="translate(-746.413 -549.993)" fill="#618dc1"/>
      <path id="Контур_97" data-name="Контур 97" d="M873.754,626.347h2.891l-.255.813.255.581h-2.891Z" transform="translate(-767.24 -549.993)" fill="#384152"/>
      <path id="Контур_98" data-name="Контур 98" d="M724.075,693.039h2.891l-.255.813.255.582h-2.891Z" transform="translate(-635.807 -608.554)" fill="#618dc1"/>
      <rect id="Прямоугольник_28" data-name="Прямоугольник 28" width="5.251" height="2.043" transform="translate(89.463 74.113)" fill="#d4d5d9"/>
      <path id="Контур_99" data-name="Контур 99" d="M.332,940.583H219.961a.333.333,0,0,0,.332-.332v-.37a.333.333,0,0,0-.332-.332H.332a.333.333,0,0,0-.332.332v.37a.333.333,0,0,0,.332.332" transform="translate(0 -825.014)" fill="#384152"/>
    </g>
  </g>
</svg>
