<svg id="LOGO_WHITE" data-name="LOGO WHITE" xmlns="http://www.w3.org/2000/svg" xmlns:xlink="http://www.w3.org/1999/xlink" width="210.47" height="101.77" viewBox="0 0 210.47 101.77">
  <defs>
    <clipPath id="clip-path">
      <rect id="Прямоугольник_306" data-name="Прямоугольник 306" width="210.47" height="101.77" fill="none"/>
    </clipPath>
  </defs>
  <g id="Сгруппировать_560" data-name="Сгруппировать 560" clip-path="url(#clip-path)">
    <path id="Контур_1587" data-name="Контур 1587" d="M165.082,2.347c-3.426,17.424-6.825,34.7-10.222,51.978l-.188-.032q4.509-27.193,9-54.292h86.861c-.5,2.92-.963,5.665-1.44,8.407q-2.656,15.275-5.319,30.55c-1.261,7.238-2.534,14.474-3.765,21.717-.115.675-.422.779-1,.777q-11.533-.047-23.067-.068-9.237-.026-18.473-.062-10.634-.047-21.267-.108c-.26,0-.52,0-.78,0l0-.309c2.234,0,4.469.042,6.7-.007q17.01-.375,34.02-.789,9.029-.209,18.058-.406c.4-.009.8-.055,1.194-.073,1.709-.074,1.691-.076,2-1.719q3.842-20.225,7.7-40.449c.956-5.025,1.914-10.049,2.879-15.115Z" transform="translate(-61.987)" fill="#fff"/>
    <path id="Контур_1588" data-name="Контур 1588" d="M141.289,127.106c.379-1.845.725-3.528,1.072-5.212.272-1.322-.054-1.826-1.418-1.88-1.761-.068-3.526,0-5.289-.031-.7-.011-.8.471-.905.962-.357,1.687-.724,3.372-1.038,5.067-.149.808-.468,1.205-1.373,1.113s-1.84-.02-2.886-.02c.439-2.115.849-4.081,1.254-6.049q1.421-6.919,2.835-13.841c.229-1.122-.1-1.569-1.258-1.6-1.429-.041-2.861-.027-4.292-.012-1.616.016-2.037.357-2.382,1.95-.6,2.792-1.224,5.582-1.759,8.389-.14.732-.425.918-1.111.885-1.059-.052-2.123-.014-3.312-.014.355-1.72.684-3.36,1.032-5,.636-2.989,1.313-5.97,1.906-8.968.135-.684.406-.856,1.046-.829,1.094.046,2.192.013,3.328.013-.061.442-.113.827-.158,1.161,3.26-2,6.764-1.123,10.189-.852a1.6,1.6,0,0,1,1.392,1.895c-.066,1.052-.235,2.1-.373,3.266.422.04.834.108,1.245.112,2.429.025,4.858,0,7.285.062,1.907.05,2.6.726,2.364,2.59a49.742,49.742,0,0,1-1.256,6.225,7.64,7.64,0,0,1-1.341,2,2.461,2.461,0,0,1,.449,2.567c-.428,1.737-.768,3.5-1.109,5.252-.114.587-.349.845-.989.808-.99-.056-1.985-.015-3.149-.015m-5.469-10.474c2.181,0,4.235.028,6.287-.013a1.7,1.7,0,0,0,1.666-1.458c.225-.9.433-1.8.6-2.713a1.128,1.128,0,0,0-1.224-1.5c-1.826-.032-3.654-.042-5.479.02a1.147,1.147,0,0,0-.846.67c-.383,1.609-.666,3.242-1.009,4.995" transform="translate(-47.862 -40.844)" fill="#fff"/>
    <path id="Контур_1589" data-name="Контур 1589" d="M30.469,113.487a1.292,1.292,0,0,1-.022-.289c.246-1.028.188-2.4.837-2.981.589-.526,1.949-.216,2.97-.224,2.4-.018,4.792,0,7.188-.01,1.413-.008,1.8-.331,2.161-1.7.678-2.594.466-2.867-2.23-2.868-1.564,0-3.129.031-4.692-.014a7.1,7.1,0,0,1-2.052-.317,2.507,2.507,0,0,1-1.791-2.964c.324-1.829.749-3.645,1.2-5.447a3.308,3.308,0,0,1,3.273-2.717c2.689-.111,5.383-.14,8.075-.177,1.789-.025,3.579,0,5.479,0-.261,1.247-.5,2.374-.747,3.567H40.806c-2.58,0-2.777-.1-3.38,3.042-.207,1.077.16,1.473,1.284,1.488,1.829.025,3.66.007,5.491.01.366,0,.732,0,1.1.026,2.358.166,3.431,1.46,3.026,3.787-.279,1.6-.683,3.182-1.056,4.766a3.522,3.522,0,0,1-3.589,3.01c-4.386.064-8.775.02-13.209.02" transform="translate(-12.201 -37.577)" fill="#fff"/>
    <path id="Контур_1590" data-name="Контур 1590" d="M203.927,127.376c2.2,0,4.162.005,6.122,0a1.6,1.6,0,0,0,1.62-1.364c.4-1.674.75-3.363,1.079-5.053a1.028,1.028,0,0,0-1.062-1.348c-1.093-.068-2.19-.1-3.285-.089-.793.01-1.15-.109-.915-1.072.547-2.241.493-2.272,2.805-2.248a46.95,46.95,0,0,1,4.872.165c1.765.2,2.327,1.1,1.986,2.836-.384,1.951-.8,3.9-1.222,5.838-.218,1-.449,2.006-.718,3a3.281,3.281,0,0,1-3.248,2.6q-2.833.151-5.673.185c-2.321.031-4.642.007-7.107.007.355-1.731.675-3.34,1.016-4.944.982-4.6,1.988-9.2,2.94-13.809.136-.658.373-.905,1.037-.876.986.043,1.976.011,3.172.011l-3.419,16.169" transform="translate(-79.824 -44.562)" fill="#fff"/>
    <path id="Контур_1591" data-name="Контур 1591" d="M104.5,116.84c-4.261,0-8.485.063-12.7-.028-1.927-.042-2.629-.938-2.368-2.869a22.184,22.184,0,0,1,1.019-4.04,2.923,2.923,0,0,1,2.851-1.994c2.351-.083,4.708-.023,7.152-.023l-.718,3.374c-1.436,0-2.8-.018-4.159.011a1.788,1.788,0,0,0-1.121.268,2.027,2.027,0,0,0-.541,1.255c-.007.16.648.493,1.007.5,1.8.053,3.594.008,5.39.034.557.008.819-.138.93-.736.314-1.7.718-3.378,1.068-5.069.3-1.432-.022-1.844-1.477-1.854-2.628-.019-5.258-.006-7.887-.006H91.807c.22-1.059.383-2.043.652-3a.973.973,0,0,1,.73-.545c3.527-.029,7.056-.076,10.581.016,3.036.079,3.663.965,3.045,3.982-.679,3.32-1.385,6.635-2.084,9.951-.053.253-.147.5-.227.766" transform="translate(-35.82 -40.913)" fill="#fff"/>
    <path id="Контур_1592" data-name="Контур 1592" d="M337.329,119.689c-.221.935-.4,1.9-.7,2.821-.064.192-.611.312-.936.315-3.029.023-6.058-.008-9.086.033a3.983,3.983,0,0,0-1.8.431,1.292,1.292,0,0,0-.515,1.128,1.324,1.324,0,0,0,1.028.675c2.061.065,4.126.031,6.189.033,3.33,0,4.446,1.436,3.644,4.682-.962,3.893-1.689,4.162-5.536,4.319-3.489.143-6.988.018-10.482.04-.725,0-1-.1-.8-.955.591-2.483.546-2.494,3.109-2.494,2.7,0,5.392.006,8.088-.007a1.769,1.769,0,0,0,1.044-.18,5.37,5.37,0,0,0,.82-1.209c-.407-.252-.807-.705-1.222-.721-2.061-.076-4.126-.033-6.189-.038a5.758,5.758,0,0,1-.992-.058c-2.564-.46-3.317-1.585-2.771-4.124.125-.584.252-1.169.426-1.74.665-2.189,1.569-3.03,3.844-3.081,4.125-.093,8.253-.033,12.38-.031a2.164,2.164,0,0,1,.458.163" transform="translate(-127.551 -47.894)" fill="#fff"/>
    <path id="Контур_1593" data-name="Контур 1593" d="M241.754,119.387c1.855.093,3.717.12,5.563.3,1.271.123,1.85.76,1.68,2-.328,2.39-.827,4.759-1.29,7.13a26.979,26.979,0,0,1-.686,2.7,2.984,2.984,0,0,1-2.8,2.343c-3.779.1-7.564.091-11.344.016a1.624,1.624,0,0,1-1.686-2.022c.322-2.326.824-4.628,1.257-6.939.1-.554.219-1.1.342-1.655.612-2.742,1.835-3.739,4.665-3.778,1.43-.02,2.861,0,4.292,0,0-.03,0-.06,0-.09M239.3,130.662v.007c.7,0,1.4,0,2.094,0,1.5-.01,1.971-.349,2.3-1.789.343-1.483.606-2.985.94-4.471.207-.926-.152-1.474-1.061-1.5-1.787-.051-3.576-.006-5.365-.006a1.449,1.449,0,0,0-1.491,1.224c-.415,1.737-.774,3.488-1.116,5.241-.164.838.3,1.26,1.1,1.288.863.03,1.728.007,2.592.007" transform="translate(-92.644 -47.846)" fill="#fff"/>
    <path id="Контур_1594" data-name="Контур 1594" d="M176.491,134.242c-1.777-.089-3.536-.141-5.289-.277-1.518-.117-2.19-.769-1.994-2.251.3-2.262.82-4.494,1.257-6.737.126-.65.264-1.3.436-1.938.7-2.6,1.68-3.437,4.361-3.494,2.959-.062,5.92-.026,8.881,0a6.018,6.018,0,0,1,1.567.251,1.528,1.528,0,0,1,1.306,1.74c-.315,2.127-.682,4.247-1.085,6.358-.23,1.2-.545,2.389-.87,3.569a3.25,3.25,0,0,1-3.21,2.508c-1.788.118-3.58.185-5.358.274m.8-3.528v0c.731,0,1.462.005,2.193,0,1.413-.013,1.9-.37,2.224-1.764.348-1.483.647-2.977.947-4.47.192-.959-.074-1.46-1.044-1.506a48.62,48.62,0,0,0-5.457.032,1.758,1.758,0,0,0-1.29.973c-.512,1.808-.874,3.661-1.232,5.509-.167.862.376,1.207,1.166,1.219.831.013,1.662,0,2.492,0" transform="translate(-67.799 -47.895)" fill="#fff"/>
    <path id="Контур_1595" data-name="Контур 1595" d="M76.455,113.426c-.222,1.112-.381,2.092-.635,3.047a.892.892,0,0,1-.68.488c-3.294.022-6.59.061-9.882-.031-2.092-.058-2.855-.988-2.486-3.039.518-2.876,1.162-5.73,1.816-8.579A3.383,3.383,0,0,1,68,102.375c3.587-.055,7.175-.016,10.829-.016l-.745,3.412c-2.465,0-4.859,0-7.252,0-1.854,0-2.161.243-2.581,2.055q-.461,1.991-.861,4c-.241,1.2.077,1.59,1.325,1.6,2.525.016,5.051,0,7.737,0" transform="translate(-25.121 -41.017)" fill="#fff"/>
    <path id="Контур_1596" data-name="Контур 1596" d="M308.344,119.723a25.549,25.549,0,0,1-.611,2.578,1.112,1.112,0,0,1-.861.521c-2,.047-3.994.022-5.991.026-2.383,0-2.643.206-3.153,2.515-.279,1.262-.562,2.525-.778,3.8-.195,1.148.153,1.547,1.3,1.556,2.3.018,4.594,0,6.891.009.226,0,.451.036.825.068-.219,1.053-.4,2.048-.655,3.025-.041.156-.4.33-.61.328-3.423-.041-6.849-.066-10.27-.19-1.44-.053-2.1-.766-1.908-2.212.31-2.328.821-4.63,1.285-6.936.2-.973.457-1.936.743-2.888.546-1.82,2.073-2.3,3.676-2.347,3.259-.1,6.523-.026,9.784-.018.085,0,.169.081.331.165" transform="translate(-117.22 -47.901)" fill="#fff"/>
    <path id="Контур_1597" data-name="Контур 1597" d="M270.685,127.476c-.215,1.073-.351,1.991-.609,2.875a1,1,0,0,1-.771.538c-1.592-.01-3.187-.053-4.773-.174a1.962,1.962,0,0,1-1.942-2.611c.791-3.931,1.614-7.855,2.43-11.78.283-1.362.625-2.714.851-4.085a.824.824,0,0,1,.995-.813c.731.022,1.465.028,2.2,0s1.03.182.818.992c-.316,1.212-.522,2.453-.807,3.834h4.007c-.243,1.119-.415,2.074-.682,3-.05.171-.476.316-.736.33-.829.044-1.662.034-2.494.018a.869.869,0,0,0-1.007.833c-.339,1.79-.755,3.565-1.122,5.349-.242,1.173.175,1.669,1.4,1.693.692.013,1.385,0,2.246,0" transform="translate(-105.21 -44.653)" fill="#fff"/>
    <path id="Контур_1598" data-name="Контур 1598" d="M.08,113.615c.913-4.288,1.8-8.475,2.695-12.662.436-2.047.9-4.09,1.29-6.145.125-.653.395-.888,1.053-.861,1.088.045,2.179.013,3.352.013C7.621,98,6.8,101.9,5.982,105.792c-.5,2.374-1,4.748-1.536,7.113-.062.269-.388.667-.609.679-1.223.067-2.451.032-3.757.032" transform="translate(-0.032 -37.65)" fill="#fff"/>
    <path id="Контур_1599" data-name="Контур 1599" d="M280.281,134.149c.471-2.258.9-4.364,1.351-6.466.518-2.432,1.071-4.856,1.564-7.293.127-.63.355-.932,1.037-.9.958.045,1.92.011,3.059.011-.092.671-.137,1.244-.255,1.8-.84,3.957-1.712,7.908-2.529,11.869-.145.706-.37,1.049-1.152.995-.956-.067-1.92-.016-3.075-.016" transform="translate(-112.327 -47.886)" fill="#fff"/>
    <path id="Контур_1600" data-name="Контур 1600" d="M15.007,112.06c.234-1.1.405-2.08.668-3.031a.89.89,0,0,1,.664-.5c2.317-.037,4.634-.022,7.1-.022-.237,1.133-.433,2.187-.7,3.224-.04.153-.4.315-.62.316-2.317.023-4.633.014-7.111.014" transform="translate(-6.014 -43.484)" fill="#fff"/>
    <path id="Контур_1601" data-name="Контур 1601" d="M40.988,162.436c.162-.821.277-1.635.491-2.423.221-.817.044-1.166-.871-1.144-1.444.035-1.458,0-1.747,1.436a11.02,11.02,0,0,0-.244,1.272c-.084,1.031-.651,1.162-1.585.845l1.017-4.8c1.691.135,3.334.315,4.981.374.764.028,1.535-.252,2.3-.268,1.77-.037,1.889.142,1.527,1.9a16.674,16.674,0,0,0-.375,1.855c-.084.963-.524,1.293-1.575.952.162-.772.333-1.564.495-2.357.215-1.054.107-1.113-.914-1.214-1.094-.108-1.613.295-1.684,1.386-.031.458-.247.9-.282,1.363-.076,1.011-.642,1.081-1.539.821" transform="translate(-14.841 -63.17)" fill="#fff"/>
    <path id="Контур_1602" data-name="Контур 1602" d="M141.374,162.5c.294-1.425.547-2.794.883-4.141a.946.946,0,0,1,.718-.546c1.483.053,2.961.246,4.443.274.835.016,1.672-.267,2.511-.285,1.439-.032,1.634.254,1.332,1.654a19.005,19.005,0,0,0-.439,2.143c-.1,1-.592,1.224-1.568.91.177-.86.34-1.725.538-2.582.155-.673-.02-.977-.772-.986-1.547-.019-1.546-.051-1.879,1.489a9.033,9.033,0,0,0-.276,1.262c-.068,1.023-.65,1.064-1.536.819.172-.886.3-1.762.52-2.616.19-.747-.1-.941-.793-.95-1.542-.02-1.572-.017-1.87,1.512-.076.391-.151.781-.231,1.171-.226,1.1-.238,1.106-1.582.872" transform="translate(-56.658 -63.241)" fill="#fff"/>
    <path id="Контур_1603" data-name="Контур 1603" d="M240.5,155.127l-.29,1.158c-.977,0-1.939.018-2.9-.006-.629-.016-.989.2-1.1.865-.132.818-.348,1.622-.528,2.432-.123.551.111.784.66.847,1.511.173,1.662.076,1.865-1.445-.285-.023-.567-.048-.849-.067s-.585-.032-.863-.048c-.142-.819.11-1.183.938-1.125.783.055,1.574.012,2.481.012-.256,1.234-.462,2.336-.735,3.421a.761.761,0,0,1-.6.37c-1.2.022-2.392-.008-3.588-.024-.747-.01-1.01-.418-.865-1.112.277-1.332.587-2.657.85-3.992a1.413,1.413,0,0,1,1.512-1.283c1.293-.011,2.586,0,4,0" transform="translate(-93.819 -62.168)" fill="#fff"/>
    <path id="Контур_1604" data-name="Контур 1604" d="M106.107,157.86h1.384c-.183.9-.322,1.752-.535,2.583-.186.729-.023,1.082.79,1.006.422-.04.852-.007,1.337-.007l.8-3.574h1.345c-.161.818-.307,1.611-.473,2.4-.253,1.2-.528,2.4-.778,3.6a1.247,1.247,0,0,1-1.27,1.161c-1.255.017-2.511,0-3.858,0l.188-1.115c.882,0,1.739-.029,2.592.008.811.036,1.148-.327,1.134-1.32-.875,0-1.722,0-2.569,0-.708,0-.956-.384-.834-1.029.234-1.234.493-2.462.747-3.716" transform="translate(-42.02 -63.265)" fill="#fff"/>
    <path id="Контур_1605" data-name="Контур 1605" d="M341.782,157.856h1.381c-.186.931-.328,1.812-.545,2.674-.162.642-.03.909.684.923,1.466.029,1.463.059,1.771-1.4.15-.71.311-1.418.479-2.181h1.4c-.481,2.164-.92,4.266-1.439,6.348a1.177,1.177,0,0,1-.82.726c-1.378.077-2.762.034-4.139.034-.05-.82.261-1.156,1.049-1.074.559.058,1.13-.011,1.693.016.788.038,1.186-.282,1.113-1.317-.838,0-1.684,0-2.53,0-.7,0-.968-.37-.844-1.023.234-1.234.494-2.463.749-3.724" transform="translate(-136.479 -63.263)" fill="#fff"/>
    <path id="Контур_1606" data-name="Контур 1606" d="M101.662,155.109c.171.962-.2,1.249-1.026,1.183-.759-.061-1.528.009-2.291-.019-.614-.022-.816.307-.865.844-.065.711.458.6.866.62.531.023,1.063,0,1.595.01a.906.906,0,0,1,1.01,1.148,6.025,6.025,0,0,1-.39,1.737,1.494,1.494,0,0,1-.964.817c-1.448.091-2.905.038-4.379.038-.086-.847.264-1.151,1.074-1.08.66.058,1.329-.006,1.992.013.887.026,1.286-.382,1.179-1.515-.645,0-1.315.008-1.983,0-1.437-.02-1.72-.373-1.42-1.752.434-2,.485-2.042,2.573-2.042h3.03" transform="translate(-38.155 -62.162)" fill="#fff"/>
    <path id="Контур_1607" data-name="Контур 1607" d="M5.414,161.42h-1.2c-.38-.382-.618-.824-.865-.829-.566-.011-1.2-.308-1.711.4-.265.364-.944.425-1.436.624l-.2-.307c.964-1.994,1.85-4.032,2.956-5.943.228-.394,1.272-.316,2.05-.478.143,2.3.273,4.371.408,6.535m-2.875-2.031,1.135-.055c-.026-.573-.048-1.072-.07-1.572l-.237-.059-.828,1.686" transform="translate(0 -62.073)" fill="#fff"/>
    <path id="Контур_1608" data-name="Контур 1608" d="M301.662,156.782c.111.883-.2,1.209-1.049,1.153s-1.831,1.617-1.28,2.195c.3.316,1.026.305,1.555.289a.961.961,0,0,0,.662-.609c.379-1.508.687-3.033,1.031-4.6h1.37c-.428,2.035-.832,4.009-1.28,5.974a.729.729,0,0,1-.561.392c-1.194.023-2.389-.011-3.584-.025-.642-.007-.922-.351-.811-.96a17.737,17.737,0,0,1,.647-2.9,1.765,1.765,0,0,1,1.161-.865,10.414,10.414,0,0,1,2.139-.038" transform="translate(-119.305 -62.202)" fill="#fff"/>
    <path id="Контур_1609" data-name="Контур 1609" d="M84.88,155.172h1.374c-.424,2.025-.82,3.994-1.269,5.952a.817.817,0,0,1-.629.433c-1.161.03-2.324-.008-3.486-.022-.695-.008-.965-.376-.84-1.031a15.781,15.781,0,0,1,.606-2.71,1.888,1.888,0,0,1,1.173-.979,10.2,10.2,0,0,1,2.262-.043c-.1.4-.182.744-.267,1.1-.222.013-.386.028-.549.032a1.621,1.621,0,0,0-1.7,2.022.651.651,0,0,0,.236.4,1.491,1.491,0,0,0,2.183-.883c.3-1.394.6-2.791.911-4.267" transform="translate(-32.061 -62.188)" fill="#fff"/>
    <path id="Контур_1610" data-name="Контур 1610" d="M137.093,160.7H134c-.178-1.784,1.33-.777,1.933-1.236-.2-.512-.819-.7-1.678-.524-.663.138-.956.926-.84,2.417h3.293c-.083.46-.14.781-.211,1.176-1.363,0-2.718.044-4.066-.041-.236-.015-.648-.594-.618-.874a9.629,9.629,0,0,1,.618-2.806,2.15,2.15,0,0,1,1.415-1,12.835,12.835,0,0,1,2.687-.043c.81.019,1.143.433.938,1.246-.137.544-.249,1.1-.383,1.689" transform="translate(-52.827 -63.205)" fill="#fff"/>
    <path id="Контур_1611" data-name="Контур 1611" d="M72.33,160.715c.088-.381.161-.7.243-1.046l1.955-.146c-.437-.907-1.152-.545-1.685-.538-.282,0-.565.4-.832.641-.062.056-.066.184-.087.281-.348,1.5-.347,1.5,1.178,1.5h1.918c.12.82-.034,1.279-.938,1.226-.96-.056-1.924-.047-2.888-.055-.819-.006-1.159-.357-.953-1.195.182-.74.328-1.49.472-2.239a1.542,1.542,0,0,1,1.6-1.357c.9-.037,1.794-.011,2.691,0,.729.007,1.024.4.905,1.1-.1.615-.25,1.222-.379,1.835Z" transform="translate(-28.126 -63.227)" fill="#fff"/>
    <path id="Контур_1612" data-name="Контур 1612" d="M224.432,160.728h-3.157c.079-.379.149-.71.225-1.073l1.8-.1.1-.323a2.876,2.876,0,0,0-.872-.273c-.555.011-1.243-.264-1.551.517-.025.062-.047.125-.067.188-.5,1.622-.415,1.74,1.278,1.74h1.8c.084.889-.172,1.307-1.085,1.231-.958-.079-1.924-.058-2.886-.068-.75-.008-1.02-.4-.88-1.1.163-.812.364-1.617.536-2.427a1.463,1.463,0,0,1,1.469-1.246c.927-.051,1.859-.03,2.789-.013.7.013,1.047.382.914,1.094-.114.613-.268,1.218-.409,1.85" transform="translate(-87.807 -63.227)" fill="#fff"/>
    <path id="Контур_1613" data-name="Контур 1613" d="M164.4,158.85c-1.379.318-2.755-.259-3.973.385l.007.372c.7,0,1.4,0,2.093,0s1.374.047,1.46.961a1.649,1.649,0,0,1-1.35,1.978c-1.384.065-2.774.017-4.159.017-.062-1.066-.062-1.07.945-1.08.7-.007,1.4.025,2.09-.014a6.552,6.552,0,0,0,1.074-.235l-.02-.37c-.683-.032-1.365-.078-2.048-.093-.74-.016-1.566.074-1.614-.987-.054-1.2.553-1.957,1.6-1.994,1.324-.046,2.65-.011,4.1-.011-.075.4-.138.729-.2,1.069" transform="translate(-63.504 -63.228)" fill="#fff"/>
    <path id="Контур_1614" data-name="Контур 1614" d="M251.293,159.618l-.2,1.033-1.929.355q.022.181.044.363h2.212c.9-2.318.84-2.415-1.593-2.416h-1.311c.08-.416.144-.753.221-1.154,1.258,0,2.483-.015,3.707.006.8.013,1.152.394.955,1.228-.238,1-.405,2.022-.672,3.015a.89.89,0,0,1-.614.554c-1.2.04-2.393,0-3.591-.02-.654-.008-.844-.368-.809-.977.084-1.462.581-1.965,2.037-1.985.491-.007.983,0,1.548,0" transform="translate(-99.271 -63.238)" fill="#fff"/>
    <path id="Контур_1615" data-name="Контур 1615" d="M57.631,159.63c.211.946-.14,1.218-.924,1.177a4.1,4.1,0,0,0-1.032.212q.018.2.037.4c.715,0,1.607.256,2.091-.077.424-.292.431-1.243.521-1.917.016-.12-.448-.423-.7-.441-.825-.058-1.656-.022-2.576-.022l.144-1.137c1.34,0,2.628-.018,3.915.007.7.013.913.464.794,1.089-.206,1.075-.41,2.152-.678,3.212a.823.823,0,0,1-.605.479c-1.194.032-2.39,0-3.585-.022-.7-.012-.914-.4-.834-1.053.189-1.511.606-1.9,2.111-1.911.428,0,.855,0,1.327,0" transform="translate(-21.713 -63.25)" fill="#fff"/>
    <path id="Контур_1616" data-name="Контур 1616" d="M324.124,157.773c-.088.434-.153.754-.219,1.081-1.315.316-2.729-.237-3.977.342.008.137.016.274.025.411.738,0,1.475,0,2.212,0,.687,0,1.265.133,1.289,1.015.028,1.029-.409,1.873-1.176,1.907-1.453.065-2.911.019-4.385.019-.092-.867.286-1.143,1.086-1.079a16.753,16.753,0,0,0,2.1,0,6.4,6.4,0,0,0,1-.2l.011-.248a1.777,1.777,0,0,0-.54-.238c-.463-.036-.931,0-1.4-.017-.745-.02-1.659.179-1.726-.972a1.7,1.7,0,0,1,1.794-2.015c1.262-.026,2.525-.006,3.912-.006" transform="translate(-127.395 -63.227)" fill="#fff"/>
    <path id="Контур_1617" data-name="Контур 1617" d="M115.535,162.582c-.087-.855.235-1.169,1.019-1.112a18.116,18.116,0,0,0,2.194,0,5.188,5.188,0,0,0,.971-.232q-.013-.192-.028-.385l-1.945-.085c-.742-.032-1.652.177-1.676-1.006-.025-1.276.557-1.951,1.715-1.98,1.293-.032,2.587-.007,3.935-.007-.055.393-.1.712-.154,1.094l-4,.193c.005.182.011.364.017.546.657,0,1.314,0,1.97,0,.748.007,1.53-.038,1.556,1.052.028,1.187-.457,1.867-1.514,1.91-1.352.055-2.709.013-4.058.013" transform="translate(-46.297 -63.227)" fill="#fff"/>
    <path id="Контур_1618" data-name="Контур 1618" d="M271.708,160.952a3.5,3.5,0,0,0-.677-.17c-.5-.026-1-.007-1.5-.009-.678,0-1.4.044-1.471-.913-.085-1.1.5-2,1.424-2.046,1.39-.067,2.786-.017,4.229-.017-.057.378-.1.7-.155,1.031-1.318.4-2.755-.264-4,.4q.005.192.01.385c.692,0,1.384-.011,2.075,0s1.385,0,1.454.953c.081,1.128-.455,1.956-1.42,1.995-1.384.056-2.773.014-4.148.014-.1-.872.256-1.156,1.029-1.1a18.245,18.245,0,0,0,2.194,0,4.961,4.961,0,0,0,.962-.239c0-.095,0-.189-.007-.284" transform="translate(-107.21 -63.233)" fill="#fff"/>
    <path id="Контур_1619" data-name="Контур 1619" d="M263.687,157.776c.142.964-.259,1.257-1.119,1.177a13.728,13.728,0,0,0-2.094,0,4.125,4.125,0,0,0-.929.277q.019.187.039.374c.7,0,1.4-.008,2.1,0,.681.011,1.381,0,1.447.961.075,1.1-.43,1.935-1.338,1.977-1.387.066-2.78.017-4.169.017-.024-1.05-.016-1.066.892-1.08.732-.011,1.465.023,2.2-.016a5.849,5.849,0,0,0,1.049-.246l-.034-.456c-.657,0-1.314.013-1.97,0-.711-.017-1.571.17-1.665-.924a1.7,1.7,0,0,1,1.637-2.054c1.326-.043,2.653-.01,3.962-.01" transform="translate(-103.243 -63.226)" fill="#fff"/>
    <path id="Контур_1620" data-name="Контур 1620" d="M182.248,162.63c-2.647,0-2.647,0-2.1-2.553.069-.324.159-.645.2-.973a1.405,1.405,0,0,1,1.577-1.315c.964-.005,1.928-.01,2.891.02.71.023,1.016.414.874,1.124-.111.553-.228,1.1-.337,1.657-.373,1.884-.548,2.028-2.506,2.04-.2,0-.4,0-.6,0m.13-.938c1.34-.211,1.832-.766,1.789-2.118-.031-.95-.8-.59-1.275-.608-1.083-.041-1.6.567-1.476,1.874.03.312.626.569.962.852" transform="translate(-72.081 -63.235)" fill="#fff"/>
    <path id="Контур_1621" data-name="Контур 1621" d="M29.48,162.635c-2.666,0-2.665,0-2.081-2.58.081-.355.17-.709.234-1.067a1.269,1.269,0,0,1,1.287-1.157c1.059-.041,2.123-.043,3.183-.009.71.023,1,.429.823,1.143-.087.353-.142.715-.218,1.071-.555,2.6-.555,2.6-3.227,2.6m1.014-3.888c-1.454.2-1.82.622-1.853,2.05-.021.895.648.675,1.121.687,1.258.032,1.657-.374,1.631-1.861,0-.3-.584-.585-.9-.877" transform="translate(-10.855 -63.24)" fill="#fff"/>
    <path id="Контур_1622" data-name="Контур 1622" d="M208.456,161.435q.617-2.915,1.236-5.832a3.056,3.056,0,0,1,.156-.415h1.3c-.111.592-.215,1.139-.3,1.576.944,0,1.878-.023,2.811.007.713.023,1.009.422.856,1.133-.257,1.195-.511,2.391-.775,3.627H212.4c.179-.887.3-1.726.523-2.539.216-.792.007-1.1-.837-1.1-1.472.007-1.48-.022-1.787,1.38-.093.422-.185.844-.272,1.266-.244,1.184-.268,1.2-1.57.893" transform="translate(-83.542 -62.194)" fill="#fff"/>
    <path id="Контур_1623" data-name="Контур 1623" d="M12.819,157.769c-.18.9-.34,1.811-.545,2.708-.142.624.076.817.7.833,1.641.042,1.639.066,1.99-1.559.14-.647.285-1.292.444-2.01h1.364c-.305,1.474-.588,2.921-.924,4.355a.732.732,0,0,1-.563.4c-1.236.021-2.472-.025-3.709-.025-.789,0-.974-.451-.852-1.109a22.428,22.428,0,0,1,.7-3.195c.11-.323.8-.448,1.221-.663l.173.269" transform="translate(-4.284 -63.121)" fill="#fff"/>
    <path id="Контур_1624" data-name="Контур 1624" d="M313.815,157.876c-.314,1.481-.59,2.881-.926,4.266a.8.8,0,0,1-.581.485c-1.237.029-2.475-.017-3.713-.024-.782,0-.983-.453-.852-1.119.238-1.2.505-2.4.767-3.634h1.354c-.2.988-.383,1.927-.578,2.864-.108.518.083.7.616.735,1.717.105,1.723.119,2.089-1.57.14-.647.288-1.293.446-2Z" transform="translate(-123.318 -63.261)" fill="#fff"/>
    <path id="Контур_1625" data-name="Контур 1625" d="M291.074,162.526c.177-.868.312-1.713.527-2.536.192-.738,0-1.041-.794-1.048-1.517-.014-1.52-.043-1.846,1.427a6.969,6.969,0,0,0-.245,1.168c-.049,1.056-.583,1.3-1.6.971l.995-4.706c1.408,0,2.784-.014,4.159.005.769.011,1.069.429.908,1.183-.187.877-.427,1.749-.533,2.636-.12,1.01-.647,1.16-1.575.9" transform="translate(-115.068 -63.24)" fill="#fff"/>
    <path id="Контур_1626" data-name="Контур 1626" d="M286.081,114.453c.227-1.049.382-1.922.624-2.77a.832.832,0,0,1,.626-.448c1.089-.046,2.182-.021,3.426-.021-.2.992-.356,1.889-.579,2.77a.735.735,0,0,1-.521.448c-1.122.042-2.246.021-3.576.021" transform="translate(-114.651 -44.568)" fill="#fff"/>
    <path id="Контур_1627" data-name="Контур 1627" d="M173.781,161.418c.3-1.43.57-2.8.868-4.158.465-2.123.759-2.32,3.015-2.087.39,1.16-.657,1.053-1.451,1.4l1.166.161c.053.712-.067,1.184-.937,1.131-.2-.013-.545.318-.62.555a9.335,9.335,0,0,0-.445,2.038c-.088,1.044-.582,1.306-1.595.959" transform="translate(-69.645 -62.158)" fill="#fff"/>
    <path id="Контур_1628" data-name="Контур 1628" d="M203.988,155.173h1.351c-.08.49-.153.943-.24,1.478l1.216.15c-.061.34-.117.653-.186,1.038l-1.239.1c-.781,2.08-.735,2.294.612,2.612-.053.3-.106.611-.154.889a.948.948,0,0,1-.232.1c-2.332.183-2.491,0-2-2.284.294-1.353.575-2.709.866-4.087" transform="translate(-81.312 -62.188)" fill="#fff"/>
    <path id="Контур_1629" data-name="Контур 1629" d="M126.991,155.152c.291-.016.52-.037.748-.037.2,0,.391.026.608.043-.081.485-.158.939-.247,1.469l1.219.149-.188,1.044-1.239.1c-.779,2.079-.733,2.3.615,2.615l-.154.887a.987.987,0,0,1-.236.1c-2.333.182-2.487,0-1.992-2.287.292-1.354.574-2.709.865-4.083" transform="translate(-50.455 -62.165)" fill="#fff"/>
    <path id="Контур_1630" data-name="Контур 1630" d="M23.2,157.926c-.787,1.943-.721,2.264.608,2.6-.058.3-.117.608-.174.9a1.73,1.73,0,0,1-.333.1c-2.213.123-2.387-.085-1.906-2.239a26.549,26.549,0,0,0,.654-3.113c.107-1.076.632-1.247,1.57-1-.065.461-.132.933-.207,1.465l1.1.093c-.029,1.071-.029,1.071-1.317,1.192" transform="translate(-8.485 -62.149)" fill="#fff"/>
    <path id="Контур_1631" data-name="Контур 1631" d="M330.827,160.533c-.183,1.127-.391,1.208-1.849,1.009-.873-.119-.871-.63-.729-1.291.361-1.679.7-3.362,1.061-5.07h1.364l-.247,1.478,1.231.14c-.078.364-.151.7-.232,1.076l-1.191.056c-.8,2.161-.763,2.33.591,2.6" transform="translate(-131.523 -62.191)" fill="#fff"/>
    <path id="Контур_1632" data-name="Контур 1632" d="M65.417,155.159H66.75c-.07.509-.134.976-.206,1.5l1.2.131-.193,1.059-1.206.087c-.815,2.054-.765,2.3.537,2.6.192,1.185-.62,1.055-1.355,1.039-.791-.017-1.406-.173-1.186-1.2.367-1.715.709-3.435,1.074-5.21" transform="translate(-25.768 -62.182)" fill="#fff"/>
    <path id="Контур_1633" data-name="Контур 1633" d="M189.528,162.574l.976-4.62h3.737c-.085.336-.17.675-.245.977a.738.738,0,0,1-.153.062c-2.172.138-2.172.138-2.661,2.38-.309,1.413-.309,1.413-1.654,1.2" transform="translate(-75.956 -63.303)" fill="#fff"/>
    <path id="Контур_1634" data-name="Контур 1634" d="M334.578,157.942h3.731l-.21.943c-.1.052-.158.1-.216.107-2.167.114-2.169.114-2.61,2.314-.162.811-.192,1.764-1.634,1.235l.94-4.6" transform="translate(-133.711 -63.298)" fill="#fff"/>
    <path id="Контур_1635" data-name="Контур 1635" d="M284.4,155.189h1.367c-.333,1.622-.661,3.217-.989,4.812a4.52,4.52,0,0,0-.121.581c-.066,1-.623,1.182-1.588.883.442-2.082.883-4.162,1.331-6.276" transform="translate(-113.443 -62.194)" fill="#fff"/>
    <path id="Контур_1636" data-name="Контур 1636" d="M245.01,155.173H246.4c-.44,2.057-.832,4.066-1.343,6.043-.064.244-.768.323-1.444.582l1.4-6.625" transform="translate(-97.63 -62.188)" fill="#fff"/>
  </g>
</svg>
