<svg id="Компонент_1_1" data-name="Компонент 1 – 1" xmlns="http://www.w3.org/2000/svg" xmlns:xlink="http://www.w3.org/1999/xlink" width="256.776" height="57.856" viewBox="0 0 256.776 57.856">
  <defs>
    <clipPath id="clip-path">
      <rect id="Прямоугольник_3" data-name="Прямоугольник 3" width="256.776" height="57.856" fill="none"/>
    </clipPath>
    <clipPath id="clip-path-2">
      <rect id="Прямоугольник_2" data-name="Прямоугольник 2" width="256.776" height="57.855" fill="none"/>
    </clipPath>
    <clipPath id="clip-path-3">
      <rect id="Прямоугольник_1" data-name="Прямоугольник 1" width="38.008" height="13.226" fill="none"/>
    </clipPath>
  </defs>
  <g id="Сгруппировать_6" data-name="Сгруппировать 6" clip-path="url(#clip-path)">
    <g id="Сгруппировать_5" data-name="Сгруппировать 5" transform="translate(0 0.001)">
      <g id="Сгруппировать_4" data-name="Сгруппировать 4" clip-path="url(#clip-path-2)">
        <path id="Контур_1" data-name="Контур 1" d="M38.314,41.412,50.147,29.579a.7.7,0,0,0,.2-.493V1.644a.7.7,0,0,0-.7-.7H22.8a.7.7,0,0,0-.492.2L10.475,12.986a.7.7,0,0,0,.492,1.188H36.429a.7.7,0,0,1,.7.7V40.92a.7.7,0,0,0,1.188.492" transform="translate(3.025 0.279)" fill="#fdd106"/>
        <path id="Контур_2" data-name="Контур 2" d="M13.022,39.756,1.188,51.59A.7.7,0,0,1,0,51.1V23.616a.7.7,0,0,1,.2-.493L12.038,11.29a.7.7,0,0,1,1.188.492V39.264a.7.7,0,0,1-.2.492" transform="translate(0 3.264)" fill="#6d6e70"/>
        <g id="Сгруппировать_3" data-name="Сгруппировать 3" transform="translate(14.385 42.633)" opacity="0.4">
          <g id="Сгруппировать_2" data-name="Сгруппировать 2">
            <g id="Сгруппировать_1" data-name="Сгруппировать 1" clip-path="url(#clip-path-3)">
              <path id="Контур_3" data-name="Контур 3" d="M23.151,45.956,11.318,34.122a.7.7,0,0,1,.492-1.188H36.588a.7.7,0,0,1,.493.2L48.915,44.972a.7.7,0,0,1-.492,1.188H23.643a.7.7,0,0,1-.492-.2" transform="translate(-11.112 -32.934)" fill="#808184"/>
            </g>
          </g>
        </g>
        <path id="Контур_4" data-name="Контур 4" d="M80.541,21.648a12.789,12.789,0,0,0,2.03-7.261,13.042,13.042,0,0,0-2.03-7.314,13.062,13.062,0,0,0-5.753-4.764A21.464,21.464,0,0,0,65.965.643H48.42V37.084H60.706V27.923h3.346l6.18,9.161h13.12L75.687,25.85a12.583,12.583,0,0,0,4.854-4.2M68.958,11.263a4.072,4.072,0,0,1,1.223,3.124,4.072,4.072,0,0,1-1.223,3.124,5.366,5.366,0,0,1-3.775,1.144H60.706V10.118h4.476a5.373,5.373,0,0,1,3.775,1.146" transform="translate(14.261 0.189)" fill="#404041"/>
        <path id="Контур_5" data-name="Контур 5" d="M110.538,5.388A19.4,19.4,0,0,0,104.031,1.4a24.708,24.708,0,0,0-16.424,0,19.341,19.341,0,0,0-6.533,3.983,18.331,18.331,0,0,0-4.294,6.039,18.594,18.594,0,0,0-1.537,7.626,18.652,18.652,0,0,0,1.537,7.6,18.276,18.276,0,0,0,4.294,6.065A19.358,19.358,0,0,0,87.607,36.7a24.686,24.686,0,0,0,16.424,0,19.42,19.42,0,0,0,6.508-3.982,18.316,18.316,0,0,0,4.3-6.065,18.63,18.63,0,0,0,1.535-7.6,18.573,18.573,0,0,0-1.535-7.626,18.372,18.372,0,0,0-4.3-6.039m-7.183,17.492a8.185,8.185,0,0,1-1.744,2.862,7.7,7.7,0,0,1-2.6,1.8,8.508,8.508,0,0,1-6.4,0,7.673,7.673,0,0,1-2.6-1.8,8.128,8.128,0,0,1-1.744-2.862,10.979,10.979,0,0,1-.627-3.827,10.989,10.989,0,0,1,.627-3.827A8.146,8.146,0,0,1,90,12.363a7.687,7.687,0,0,1,2.6-1.8,8.508,8.508,0,0,1,6.4,0,7.712,7.712,0,0,1,2.6,1.8,8.2,8.2,0,0,1,1.744,2.863,10.99,10.99,0,0,1,.624,3.827,10.98,10.98,0,0,1-.624,3.827" transform="translate(22.161 -0.001)" fill="#404041"/>
        <path id="Контур_6" data-name="Контур 6" d="M137.9,18.135c-.094-.036-.2-.061-.3-.1a9.8,9.8,0,0,0,3.525-2.949,8.289,8.289,0,0,0,1.535-4.921,8.2,8.2,0,0,0-3.592-6.845Q135.479.644,127.931.643H108.46V37.084h20.512q7.55,0,11.479-2.655a8.431,8.431,0,0,0,3.93-7.392A8.839,8.839,0,0,0,142.69,21.6a10.543,10.543,0,0,0-4.788-3.462m-11.637-8.9a5.388,5.388,0,0,1,3.046.676,2.319,2.319,0,0,1,.963,2.03,2.333,2.333,0,0,1-.963,2.005,5.222,5.222,0,0,1-3.046.7h-5.726V9.233Zm4.712,18.532a5.229,5.229,0,0,1-3.046.729h-7.392V22.768h7.392a5.229,5.229,0,0,1,3.046.729,2.465,2.465,0,0,1,1.015,2.135,2.463,2.463,0,0,1-1.015,2.135" transform="translate(31.945 0.189)" fill="#404041"/>
        <path id="Контур_7" data-name="Контур 7" d="M177.536,19.053A18.614,18.614,0,0,0,176,11.427a18.391,18.391,0,0,0-4.3-6.039A19.4,19.4,0,0,0,165.2,1.4a24.708,24.708,0,0,0-16.424,0,19.328,19.328,0,0,0-6.533,3.983,18.354,18.354,0,0,0-4.3,6.039,18.594,18.594,0,0,0-1.537,7.626,18.653,18.653,0,0,0,1.537,7.6,18.3,18.3,0,0,0,4.3,6.065,19.346,19.346,0,0,0,6.533,3.982,24.686,24.686,0,0,0,16.424,0,19.42,19.42,0,0,0,6.508-3.982,18.335,18.335,0,0,0,4.3-6.065,18.673,18.673,0,0,0,1.535-7.6m-13.015,3.827a8.166,8.166,0,0,1-1.744,2.862,7.7,7.7,0,0,1-2.6,1.8,8.512,8.512,0,0,1-6.4,0,7.68,7.68,0,0,1-2.6-1.8,8.15,8.15,0,0,1-1.745-2.862,11.01,11.01,0,0,1-.625-3.827,11.02,11.02,0,0,1,.625-3.827,8.167,8.167,0,0,1,1.745-2.863,7.694,7.694,0,0,1,2.6-1.8,8.512,8.512,0,0,1,6.4,0,7.72,7.72,0,0,1,2.6,1.8,8.184,8.184,0,0,1,1.744,2.863,10.989,10.989,0,0,1,.625,3.827,10.979,10.979,0,0,1-.625,3.827" transform="translate(40.176 -0.001)" fill="#404041"/>
        <path id="Контур_8" data-name="Контур 8" d="M206.51,37.084l-13.444-18.83L205.728.644H192.506L186.471,9.8l-6.2-9.157h-13.8l12.7,18.039-13.168,18.4h14l6.139-9.743,6.3,9.743Z" transform="translate(48.894 0.189)" fill="#404041"/>
        <path id="Контур_9" data-name="Контур 9" d="M54.133,44.769l-1.657-2.623c-.19.016-.346.023-.465.023H49.889v2.6H48.745V36.424h3.266a3.682,3.682,0,0,1,2.451.733,2.582,2.582,0,0,1,.863,2.08,2.953,2.953,0,0,1-.471,1.7,2.63,2.63,0,0,1-1.353,1l1.943,2.826Zm-2.122-3.636a2.525,2.525,0,0,0,1.645-.471,1.7,1.7,0,0,0,.572-1.389,1.631,1.631,0,0,0-.572-1.351,2.57,2.57,0,0,0-1.645-.46H49.889v3.671Z" transform="translate(14.357 10.727)" fill="#58595b"/>
        <path id="Контур_10" data-name="Контур 10" d="M59.759,38.375A2.924,2.924,0,0,1,60.9,39.5a3.53,3.53,0,0,1,0,3.309,2.9,2.9,0,0,1-1.143,1.131,3.679,3.679,0,0,1-3.362,0,2.893,2.893,0,0,1-1.144-1.126,3.541,3.541,0,0,1,0-3.314A2.91,2.91,0,0,1,56.4,38.375a3.689,3.689,0,0,1,3.362,0m-2.778.847a1.976,1.976,0,0,0-.751.792,2.427,2.427,0,0,0-.269,1.151,2.477,2.477,0,0,0,.269,1.168,1.924,1.924,0,0,0,.751.794,2.159,2.159,0,0,0,1.1.28,2.135,2.135,0,0,0,1.09-.28,1.924,1.924,0,0,0,.751-.794,2.462,2.462,0,0,0,.268-1.168,2.412,2.412,0,0,0-.268-1.151,1.976,1.976,0,0,0-.751-.792,2.1,2.1,0,0,0-1.09-.286,2.125,2.125,0,0,0-1.1.286" transform="translate(16.152 11.183)" fill="#58595b"/>
        <path id="Контур_11" data-name="Контур 11" d="M66.1,38.946a2.767,2.767,0,0,1,1.072,1.133,3.826,3.826,0,0,1,.006,3.319,2.721,2.721,0,0,1-1.062,1.121,3.062,3.062,0,0,1-1.568.4,2.872,2.872,0,0,1-1.406-.334,2.388,2.388,0,0,1-.954-.953v1.251H61.084V36.037h1.108v3.79a2.408,2.408,0,0,1,.948-.954,2.816,2.816,0,0,1,1.389-.333,3.052,3.052,0,0,1,1.574.405m-.7,4.72a1.961,1.961,0,0,0,.751-.8,2.459,2.459,0,0,0,.268-1.156,2.392,2.392,0,0,0-.274-1.144,2.013,2.013,0,0,0-.751-.8,2.07,2.07,0,0,0-1.085-.286,2.1,2.1,0,0,0-1.09.286,2,2,0,0,0-.757.8,2.561,2.561,0,0,0,0,2.307,2.01,2.01,0,0,0,.757.792,2.222,2.222,0,0,0,2.181,0" transform="translate(17.991 10.613)" fill="#58595b"/>
        <path id="Контур_12" data-name="Контур 12" d="M71.721,38.375A2.924,2.924,0,0,1,72.864,39.5a3.53,3.53,0,0,1,0,3.309,2.9,2.9,0,0,1-1.143,1.131,3.679,3.679,0,0,1-3.362,0,2.893,2.893,0,0,1-1.144-1.126,3.541,3.541,0,0,1,0-3.314,2.91,2.91,0,0,1,1.144-1.126,3.689,3.689,0,0,1,3.362,0m-2.778.847a1.976,1.976,0,0,0-.751.792,2.427,2.427,0,0,0-.269,1.151,2.477,2.477,0,0,0,.269,1.168,1.923,1.923,0,0,0,.751.794,2.159,2.159,0,0,0,1.1.28,2.135,2.135,0,0,0,1.09-.28,1.924,1.924,0,0,0,.751-.794,2.461,2.461,0,0,0,.268-1.168,2.411,2.411,0,0,0-.268-1.151,1.976,1.976,0,0,0-.751-.792,2.1,2.1,0,0,0-1.09-.286,2.125,2.125,0,0,0-1.1.286" transform="translate(19.675 11.183)" fill="#58595b"/>
        <path id="Контур_13" data-name="Контур 13" d="M76.537,44.223a2.723,2.723,0,0,1-1.478.465,1.68,1.68,0,0,1-1.216-.447,1.8,1.8,0,0,1-.465-1.353V39.4h-.895v-.847h.895V36.856H74.5v1.693H76.43V39.4H74.5v3.289a1.165,1.165,0,0,0,.192.751.7.7,0,0,0,.572.227,1.991,1.991,0,0,0,.977-.3Z" transform="translate(21.349 10.855)" fill="#58595b"/>
        <path id="Контур_14" data-name="Контур 14" d="M77.731,36.257a.766.766,0,0,1,0,1.025.7.7,0,0,1-.989,0,.766.766,0,0,1,0-1.025.7.7,0,0,1,.989,0m-1.042,2.313H77.8v6.306H76.689Z" transform="translate(22.545 10.618)" fill="#58595b"/>
        <path id="Контур_15" data-name="Контур 15" d="M81.943,38.959a2.2,2.2,0,0,0-1.1.274,1.958,1.958,0,0,0-.757.775,2.366,2.366,0,0,0-.273,1.156,2.411,2.411,0,0,0,.268,1.156,1.962,1.962,0,0,0,.739.781,2.07,2.07,0,0,0,1.078.281,2.855,2.855,0,0,0,1.1-.2,2.1,2.1,0,0,0,.81-.584l.632.643a2.785,2.785,0,0,1-1.091.822,3.722,3.722,0,0,1-1.5.287,3.25,3.25,0,0,1-1.632-.406A2.844,2.844,0,0,1,79.1,42.815a3.343,3.343,0,0,1-.4-1.651,3.379,3.379,0,0,1,.4-1.657,2.843,2.843,0,0,1,1.115-1.133,3.249,3.249,0,0,1,1.632-.405,3.987,3.987,0,0,1,1.437.245,2.777,2.777,0,0,1,1.067.709l-.607.762a2.5,2.5,0,0,0-1.8-.728" transform="translate(23.179 11.183)" fill="#58595b"/>
        <path id="Контур_16" data-name="Контур 16" d="M89.532,39.023a3.084,3.084,0,0,0-.9-.144,1.541,1.541,0,0,0-.805.185.618.618,0,0,0-.3.566.63.63,0,0,0,.34.579,4.922,4.922,0,0,0,1.03.4,8.051,8.051,0,0,1,1.073.381,1.922,1.922,0,0,1,.709.561,1.734,1.734,0,0,1-.382,2.337,2.88,2.88,0,0,1-1.675.465,4.173,4.173,0,0,1-1.364-.227,3.083,3.083,0,0,1-1.115-.643l.418-.812a2.932,2.932,0,0,0,.971.573,3.237,3.237,0,0,0,1.126.214,1.7,1.7,0,0,0,.883-.2.678.678,0,0,0,.334-.62.7.7,0,0,0-.352-.643,4.786,4.786,0,0,0-1.067-.43,7.151,7.151,0,0,1-1.032-.364,1.822,1.822,0,0,1-.68-.542,1.464,1.464,0,0,1-.28-.929,1.5,1.5,0,0,1,.643-1.323,2.785,2.785,0,0,1,1.609-.441,4.009,4.009,0,0,1,1.126.162,3.4,3.4,0,0,1,.961.435L90.4,39.4a3.806,3.806,0,0,0-.863-.381" transform="translate(25.371 11.18)" fill="#58595b"/>
        <path id="Контур_17" data-name="Контур 17" d="M94.54,44.223a2.723,2.723,0,0,1-1.478.465,1.68,1.68,0,0,1-1.216-.447,1.8,1.8,0,0,1-.465-1.353V39.4h-.895v-.847h.895V36.856H92.5v1.693h1.931V39.4H92.5v3.289a1.165,1.165,0,0,0,.192.751.7.7,0,0,0,.572.227,1.991,1.991,0,0,0,.977-.3Z" transform="translate(26.651 10.855)" fill="#58595b"/>
        <path id="Контур_18" data-name="Контур 18" d="M99.033,38.375a2.924,2.924,0,0,1,1.143,1.126,3.53,3.53,0,0,1,0,3.309,2.9,2.9,0,0,1-1.143,1.131,3.679,3.679,0,0,1-3.362,0,2.893,2.893,0,0,1-1.144-1.126,3.541,3.541,0,0,1,0-3.314,2.91,2.91,0,0,1,1.144-1.126,3.689,3.689,0,0,1,3.362,0m-2.778.847a1.976,1.976,0,0,0-.751.792,2.427,2.427,0,0,0-.269,1.151,2.477,2.477,0,0,0,.269,1.168,1.924,1.924,0,0,0,.751.794,2.159,2.159,0,0,0,1.1.28,2.135,2.135,0,0,0,1.09-.28,1.924,1.924,0,0,0,.751-.794,2.462,2.462,0,0,0,.268-1.168,2.412,2.412,0,0,0-.268-1.151,1.976,1.976,0,0,0-.751-.792,2.1,2.1,0,0,0-1.09-.286,2.125,2.125,0,0,0-1.1.286" transform="translate(27.72 11.183)" fill="#58595b"/>
        <path id="Контур_19" data-name="Контур 19" d="M102.3,38.334a2.633,2.633,0,0,1,1.358-.364v1.073a2.029,2.029,0,0,0-2.241,1.943v3.326h-1.109V38.006h1.109v1.359a2.285,2.285,0,0,1,.883-1.032" transform="translate(29.545 11.183)" fill="#58595b"/>
        <path id="Контур_20" data-name="Контур 20" d="M107.591,44.312V43.43a2.589,2.589,0,0,1-2.206.929,2.516,2.516,0,0,1-1.151-.25,1.827,1.827,0,0,1-1.03-1.682,1.619,1.619,0,0,1,.625-1.34,2.8,2.8,0,0,1,1.746-.507h2v-.3a1.309,1.309,0,0,0-.41-1.032,1.76,1.76,0,0,0-1.2-.364,3.442,3.442,0,0,0-1.943.68l-.466-.762a5.849,5.849,0,0,1,1.258-.638,4.3,4.3,0,0,1,1.377-.2,2.634,2.634,0,0,1,1.824.579,2.1,2.1,0,0,1,.656,1.616l.01,4.148Zm-.663-1.245a1.481,1.481,0,0,0,.65-1v-.632h-1.847a2.161,2.161,0,0,0-1.115.227.78.78,0,0,0-.364.716.924.924,0,0,0,.37.774,1.569,1.569,0,0,0,.988.286,2.259,2.259,0,0,0,1.318-.375" transform="translate(30.396 11.183)" fill="#58595b"/>
        <path id="Контур_21" data-name="Контур 21" d="M114.687,38.006v5.662a3.067,3.067,0,0,1-.4,1.586,2.646,2.646,0,0,1-1.126,1.043,3.741,3.741,0,0,1-1.693.364,4.313,4.313,0,0,1-2.6-.883l.488-.81a3.372,3.372,0,0,0,.966.566,3.121,3.121,0,0,0,1.1.185,2.191,2.191,0,0,0,1.561-.548,1.918,1.918,0,0,0,.584-1.467v-.882a2.351,2.351,0,0,1-.906.888,2.674,2.674,0,0,1-1.311.315,2.856,2.856,0,0,1-1.5-.387,2.621,2.621,0,0,1-1.007-1.078,3.392,3.392,0,0,1-.359-1.586,3.291,3.291,0,0,1,.359-1.561,2.6,2.6,0,0,1,1.007-1.06,2.89,2.89,0,0,1,1.5-.382,2.712,2.712,0,0,1,1.318.309,2.32,2.32,0,0,1,.9.883V38.006ZM112.6,42.858a1.92,1.92,0,0,0,.709-.756,2.294,2.294,0,0,0,.256-1.091,2.319,2.319,0,0,0-.256-1.1,1.923,1.923,0,0,0-.709-.757,1.963,1.963,0,0,0-1.037-.274,1.992,1.992,0,0,0-1.042.274,1.946,1.946,0,0,0-.722.757,2.277,2.277,0,0,0-.261,1.1,2.178,2.178,0,0,0,.571,1.525,1.9,1.9,0,0,0,1.455.6,1.952,1.952,0,0,0,1.037-.274" transform="translate(31.953 11.183)" fill="#58595b"/>
        <path id="Контур_22" data-name="Контур 22" d="M119.727,38.833a3.545,3.545,0,0,1,.751,2.4c0,.159,0,.278-.01.357h-4.984a2.146,2.146,0,0,0,.709,1.348,2.105,2.105,0,0,0,1.424.5,2.644,2.644,0,0,0,1.043-.2,2.515,2.515,0,0,0,.841-.572l.607.632a3.18,3.18,0,0,1-1.12.775,3.746,3.746,0,0,1-1.455.274,3.35,3.35,0,0,1-1.651-.4,2.811,2.811,0,0,1-1.121-1.126,3.632,3.632,0,0,1,0-3.309,2.9,2.9,0,0,1,1.116-1.131,3.208,3.208,0,0,1,1.631-.412,2.776,2.776,0,0,1,2.218.863m-.25,1.9a1.825,1.825,0,0,0-1.955-1.847,2,2,0,0,0-1.389.5,2.109,2.109,0,0,0-.662,1.348Z" transform="translate(33.683 11.183)" fill="#58595b"/>
        <path id="Контур_23" data-name="Контур 23" d="M126.643,44.312V43.43a2.586,2.586,0,0,1-2.2.929,2.512,2.512,0,0,1-1.151-.25,1.825,1.825,0,0,1-1.032-1.682,1.619,1.619,0,0,1,.625-1.34,2.8,2.8,0,0,1,1.746-.507h2v-.3a1.305,1.305,0,0,0-.412-1.032,1.757,1.757,0,0,0-1.2-.364,3.439,3.439,0,0,0-1.943.68l-.466-.762a5.82,5.82,0,0,1,1.258-.638,4.3,4.3,0,0,1,1.377-.2,2.633,2.633,0,0,1,1.823.579,2.093,2.093,0,0,1,.656,1.616l.012,4.148Zm-.661-1.245a1.486,1.486,0,0,0,.65-1v-.632h-1.849a2.165,2.165,0,0,0-1.115.227.782.782,0,0,0-.362.716.923.923,0,0,0,.369.774,1.576,1.576,0,0,0,.989.286,2.262,2.262,0,0,0,1.318-.375" transform="translate(36.008 11.183)" fill="#58595b"/>
        <path id="Контур_24" data-name="Контур 24" d="M131.558,44.223a2.723,2.723,0,0,1-1.478.465,1.68,1.68,0,0,1-1.216-.447,1.8,1.8,0,0,1-.465-1.353V39.4H127.5v-.847h.895V36.856h1.12v1.693h1.931V39.4h-1.931v3.289a1.174,1.174,0,0,0,.19.751.708.708,0,0,0,.573.227,2,2,0,0,0,.977-.3Z" transform="translate(37.554 10.855)" fill="#58595b"/>
        <path id="Контур_25" data-name="Контур 25" d="M135.759,46.295a1.891,1.891,0,0,1-1.161.37,2.086,2.086,0,0,1-1.384-.489l.476-.87a1.45,1.45,0,0,0,.848.3,1.151,1.151,0,0,0,1.072-.81l.238-.561L133.239,38h1.168l2,5.055L138.3,38h1.133l-2.885,7.2a2.511,2.511,0,0,1-.792,1.1" transform="translate(39.235 11.191)" fill="#58595b"/>
        <path id="Контур_26" data-name="Контур 26" d="M143.095,38.375a2.924,2.924,0,0,1,1.143,1.126,3.521,3.521,0,0,1,0,3.309,2.9,2.9,0,0,1-1.143,1.131,3.679,3.679,0,0,1-3.362,0,2.9,2.9,0,0,1-1.144-1.126,3.541,3.541,0,0,1,0-3.314,2.919,2.919,0,0,1,1.144-1.126,3.689,3.689,0,0,1,3.362,0m-2.778.847a1.976,1.976,0,0,0-.751.792,2.427,2.427,0,0,0-.268,1.151,2.477,2.477,0,0,0,.268,1.168,1.923,1.923,0,0,0,.751.794,2.159,2.159,0,0,0,1.1.28,2.135,2.135,0,0,0,1.09-.28,1.915,1.915,0,0,0,.751-.794,2.462,2.462,0,0,0,.268-1.168,2.412,2.412,0,0,0-.268-1.151,1.968,1.968,0,0,0-.751-.792,2.1,2.1,0,0,0-1.09-.286,2.125,2.125,0,0,0-1.1.286" transform="translate(40.697 11.183)" fill="#58595b"/>
        <path id="Контур_27" data-name="Контур 27" d="M150,38V44.3h-1.12V42.969a2.373,2.373,0,0,1-2.337,1.371,2.262,2.262,0,0,1-1.717-.65,2.5,2.5,0,0,1-.62-1.794V38h1.121v3.6a1.71,1.71,0,0,0,.435,1.245,1.594,1.594,0,0,0,1.2.447,1.768,1.768,0,0,0,1.4-.625,2.346,2.346,0,0,0,.519-1.568V38Z" transform="translate(42.474 11.191)" fill="#58595b"/>
        <path id="Контур_28" data-name="Контур 28" d="M152.342,38.334a2.633,2.633,0,0,1,1.358-.364v1.073a2.029,2.029,0,0,0-2.241,1.943v3.326h-1.108V38.006h1.108v1.359a2.285,2.285,0,0,1,.883-1.032" transform="translate(44.283 11.183)" fill="#58595b"/>
        <path id="Контур_29" data-name="Контур 29" d="M158.027,37.233a.967.967,0,0,0-.285.751v.822h1.74v.847h-1.74V44.9h-1.109V39.652h-.822v-.847h.822v-.68a2.227,2.227,0,0,1,.293-1.173,1.9,1.9,0,0,1,.769-.728,2.213,2.213,0,0,1,1.025-.245,2.442,2.442,0,0,1,1.1.286l-.263.906a1.894,1.894,0,0,0-.81-.2,1.022,1.022,0,0,0-.716.263m3.511-.954a.762.762,0,0,1,0,1.025.7.7,0,0,1-.988,0,.762.762,0,0,1,0-1.025.7.7,0,0,1,.988,0M160.5,38.592H161.6V44.9H160.5Z" transform="translate(45.891 10.597)" fill="#58595b"/>
        <path id="Контур_30" data-name="Контур 30" d="M167.2,38.62a2.464,2.464,0,0,1,.632,1.794v3.9h-1.108v-3.6a1.679,1.679,0,0,0-.448-1.245,1.66,1.66,0,0,0-1.232-.447,1.891,1.891,0,0,0-1.377.542,2.126,2.126,0,0,0-.6,1.376v3.374h-1.109V38.006h1.109v1.335a2.433,2.433,0,0,1,2.4-1.371,2.316,2.316,0,0,1,1.74.65" transform="translate(47.7 11.183)" fill="#58595b"/>
        <path id="Контур_31" data-name="Контур 31" d="M173.741,38.006v5.662a3.079,3.079,0,0,1-.4,1.586,2.661,2.661,0,0,1-1.126,1.043,3.748,3.748,0,0,1-1.693.364,4.314,4.314,0,0,1-2.6-.883l.489-.81a3.355,3.355,0,0,0,.966.566,3.119,3.119,0,0,0,1.1.185,2.189,2.189,0,0,0,1.561-.548,1.918,1.918,0,0,0,.584-1.467v-.882a2.347,2.347,0,0,1-.9.888,2.681,2.681,0,0,1-1.311.315,2.861,2.861,0,0,1-1.5-.387A2.63,2.63,0,0,1,167.9,42.56a3.407,3.407,0,0,1-.359-1.586,3.306,3.306,0,0,1,.359-1.561,2.607,2.607,0,0,1,1.007-1.06,2.9,2.9,0,0,1,1.5-.382,2.7,2.7,0,0,1,1.317.309,2.312,2.312,0,0,1,.9.883V38.006Zm-2.085,4.852a1.938,1.938,0,0,0,.709-.756,2.293,2.293,0,0,0,.255-1.091,2.318,2.318,0,0,0-.255-1.1,1.942,1.942,0,0,0-.709-.757,1.968,1.968,0,0,0-1.038-.274,1.992,1.992,0,0,0-1.042.274,1.942,1.942,0,0,0-.721.757,2.263,2.263,0,0,0-.263,1.1,2.173,2.173,0,0,0,.572,1.525,1.9,1.9,0,0,0,1.454.6,1.956,1.956,0,0,0,1.038-.274" transform="translate(49.346 11.183)" fill="#58595b"/>
        <path id="Контур_32" data-name="Контур 32" d="M178.782,38.833a4.339,4.339,0,0,1,.739,2.76h-4.983a2.146,2.146,0,0,0,.709,1.348,2.1,2.1,0,0,0,1.424.5,2.653,2.653,0,0,0,1.043-.2,2.528,2.528,0,0,0,.841-.572l.606.632a3.168,3.168,0,0,1-1.12.775,3.739,3.739,0,0,1-1.454.274,3.343,3.343,0,0,1-1.651-.4,2.814,2.814,0,0,1-1.122-1.126,3.632,3.632,0,0,1,0-3.309,2.92,2.92,0,0,1,1.116-1.131,3.213,3.213,0,0,1,1.632-.412,2.778,2.778,0,0,1,2.218.863m-.25,1.9a1.827,1.827,0,0,0-1.956-1.847,2,2,0,0,0-1.388.5,2.1,2.1,0,0,0-.663,1.348Z" transform="translate(51.076 11.183)" fill="#58595b"/>
        <path id="Контур_33" data-name="Контур 33" d="M181.3,38.334a2.637,2.637,0,0,1,1.359-.364v1.073a2.031,2.031,0,0,0-2.242,1.943v3.326h-1.108V38.006h1.108v1.359a2.292,2.292,0,0,1,.883-1.032" transform="translate(52.812 11.183)" fill="#58595b"/>
        <path id="Контур_34" data-name="Контур 34" d="M186.365,44.223a2.719,2.719,0,0,1-1.478.465,1.682,1.682,0,0,1-1.216-.447,1.8,1.8,0,0,1-.465-1.353V39.4h-.895v-.847h.895V36.856h1.121v1.693h1.93V39.4h-1.93v3.289a1.166,1.166,0,0,0,.19.751.7.7,0,0,0,.572.227,2,2,0,0,0,.979-.3Z" transform="translate(53.696 10.855)" fill="#58595b"/>
        <path id="Контур_35" data-name="Контур 35" d="M187.56,36.257a.77.77,0,0,1,0,1.025.7.7,0,0,1-.99,0,.77.77,0,0,1,0-1.025.7.7,0,0,1,.99,0m-1.043,2.313h1.108v6.306h-1.108Z" transform="translate(54.892 10.618)" fill="#58595b"/>
        <path id="Контур_36" data-name="Контур 36" d="M194.073,38.376a2.767,2.767,0,0,1,1.072,1.133,3.826,3.826,0,0,1,.006,3.319,2.726,2.726,0,0,1-1.06,1.121,3.069,3.069,0,0,1-1.568.4,2.877,2.877,0,0,1-1.407-.334,2.377,2.377,0,0,1-.953-.953v3.564h-1.109V38.006h1.109v1.252a2.392,2.392,0,0,1,.948-.954,2.811,2.811,0,0,1,1.388-.333,3.052,3.052,0,0,1,1.574.405m-.7,4.72a1.961,1.961,0,0,0,.751-.8,2.443,2.443,0,0,0,.268-1.156A2.377,2.377,0,0,0,194.119,40a2,2,0,0,0-.751-.8,2.067,2.067,0,0,0-1.085-.286,2.1,2.1,0,0,0-1.09.286,2,2,0,0,0-.757.8,2.572,2.572,0,0,0,0,2.307,2.01,2.01,0,0,0,.757.792,2.222,2.222,0,0,0,2.181,0" transform="translate(55.682 11.183)" fill="#58595b"/>
        <path id="Контур_37" data-name="Контур 37" d="M198.015,39.023a3.077,3.077,0,0,0-.9-.144,1.533,1.533,0,0,0-.8.185.617.617,0,0,0-.305.566.63.63,0,0,0,.34.579,4.909,4.909,0,0,0,1.032.4,8.092,8.092,0,0,1,1.072.381,1.936,1.936,0,0,1,.711.561,1.738,1.738,0,0,1-.382,2.337,2.883,2.883,0,0,1-1.675.465,4.181,4.181,0,0,1-1.366-.227,3.066,3.066,0,0,1-1.113-.643l.417-.812a2.932,2.932,0,0,0,.971.573,3.242,3.242,0,0,0,1.126.214,1.7,1.7,0,0,0,.883-.2.675.675,0,0,0,.334-.62.7.7,0,0,0-.352-.643,4.786,4.786,0,0,0-1.067-.43,7.208,7.208,0,0,1-1.032-.364,1.808,1.808,0,0,1-.678-.542,1.456,1.456,0,0,1-.281-.929,1.5,1.5,0,0,1,.643-1.323,2.785,2.785,0,0,1,1.609-.441,4.009,4.009,0,0,1,1.126.162,3.4,3.4,0,0,1,.961.435l-.405.845a3.842,3.842,0,0,0-.865-.381" transform="translate(57.323 11.18)" fill="#58595b"/>
      </g>
    </g>
  </g>
</svg>
